<svg width="60" height="60" viewBox="0 0 60 60" fill="none" xmlns="http://www.w3.org/2000/svg">
<path d="M50.9324 44.3586C50.6622 43.2266 49.62 42.4876 48.5162 42.5662L46.3933 36.8116C46.3161 36.6072 46.1617 36.4421 45.9687 36.3635C45.7757 36.277 45.5519 36.2849 45.3589 36.3714L29.974 43.4231C29.8042 43.3995 29.6343 43.3759 29.4645 43.3759C29.2947 43.3759 29.1249 43.3995 28.955 43.4231L13.5701 36.3714C13.3771 36.2849 13.1533 36.277 12.9603 36.3635C12.7596 36.45 12.6052 36.6072 12.5357 36.8116L10.4206 42.5583C9.96513 42.5348 9.51741 42.6448 9.11599 42.8964C8.58335 43.2266 8.21282 43.7454 8.06615 44.3586C7.91948 44.9718 8.01983 45.6007 8.33633 46.1432C8.66054 46.6778 9.17003 47.063 9.76443 47.2045L28.9164 51.9371C29.094 51.9843 29.2792 52 29.4645 52C29.6498 52 29.8273 51.9764 30.0126 51.9371L49.2341 47.2045C49.8362 47.0551 50.3457 46.6778 50.6622 46.1432C50.9864 45.6007 51.079 44.9718 50.9324 44.3586ZM45.2431 38.148L45.7912 39.6417L40.0016 41.8508C39.6002 42.0002 39.3995 42.4561 39.5461 42.8649C39.6619 43.1794 39.963 43.3759 40.2718 43.3759C40.3644 43.3759 40.457 43.3602 40.542 43.3288L46.3316 41.1197L46.9877 42.9121L33.6948 46.1825C33.3397 45.3649 32.7607 44.6888 32.0428 44.2014L45.2431 38.148ZM29.4645 47.2202L26.7781 46.5598C27.3108 45.585 28.322 44.9561 29.4645 44.9561C30.607 44.9561 31.6182 45.5929 32.1509 46.5677L29.4645 47.2202ZM13.6859 38.148L26.8785 44.1935C26.1683 44.6809 25.5893 45.357 25.2342 46.1746L11.9413 42.8885L12.5975 41.1118L18.3871 43.3209C18.472 43.3602 18.5646 43.3759 18.6573 43.3759C18.966 43.3759 19.2671 43.1794 19.3829 42.8649C19.5296 42.4561 19.3288 42.008 18.9274 41.8508L13.1378 39.6417L13.6859 38.148ZM9.64864 45.3256C9.54056 45.1448 9.50969 44.9325 9.556 44.7281C9.60232 44.5237 9.73355 44.3429 9.9111 44.2407C10.0269 44.1621 10.1658 44.1228 10.2971 44.1228C10.3588 44.1228 10.4206 44.1306 10.4901 44.1464L25.5121 47.857C25.5199 47.857 25.5276 47.8648 25.5353 47.8648H25.5662L25.8672 47.9356L26.0216 49.5944L10.1272 45.6793C9.92654 45.6243 9.75671 45.4985 9.64864 45.3256ZM29.6498 50.412C29.5263 50.4434 29.4028 50.4434 29.287 50.412L27.6118 49.9953L27.4575 48.3365L29.287 48.7925C29.4105 48.8239 29.534 48.8239 29.6498 48.7925L31.4793 48.3444L31.3249 50.0032L29.6498 50.412ZM49.3421 45.3256C49.2341 45.5064 49.0642 45.6322 48.8635 45.6793L32.9074 49.6101L33.0618 47.9513L33.3706 47.8727H33.386C33.386 47.8727 33.3937 47.8727 33.3937 47.8648L48.493 44.1464C48.9099 44.0442 49.3267 44.3036 49.4271 44.7281C49.4811 44.9325 49.4502 45.1448 49.3421 45.3256Z" fill="#073500"/>
<path d="M23.2889 28.0225V29.2253V33.9422C23.2889 34.9877 23.9605 35.8604 24.8868 36.1748C25.1956 38.4625 27.1332 40.2314 29.4645 40.2314C31.7958 40.2314 33.7333 38.4625 34.0421 36.1748C34.9685 35.8604 35.6401 34.9877 35.6401 33.9422V29.2253V28.0225C38.9826 25.6483 40.7195 21.6547 40.1714 17.5038C39.5307 12.5904 35.5474 8.62033 30.7073 8.07003C27.635 7.71626 24.5549 8.71467 22.2622 10.798C19.9695 12.8891 18.6572 15.8765 18.6572 19.0054C18.6572 22.6216 20.3787 25.9628 23.2889 28.0225ZM34.0962 30.0114V31.5837H24.8328V30.0114H34.0962ZM29.4645 38.6591C28.0287 38.6591 26.8321 37.6528 26.4848 36.3006H32.4442C32.0968 37.6528 30.9003 38.6591 29.4645 38.6591ZM33.3242 34.7283H25.6047C25.1802 34.7283 24.8328 34.3746 24.8328 33.9422V33.156H34.0962V33.9422C34.0962 34.3746 33.7488 34.7283 33.3242 34.7283ZM23.2889 11.9693C25.0103 10.4049 27.1641 9.57157 29.449 9.57157C29.8041 9.57157 30.167 9.59515 30.5298 9.63446C34.6751 10.1062 38.0871 13.5023 38.6352 17.7161C39.1215 21.4031 37.5082 24.9408 34.4435 26.9454C34.2274 27.087 34.0962 27.3385 34.0962 27.6058V28.4391H30.2364V19.7915H32.5523C32.9768 19.7915 33.3242 19.4377 33.3242 19.0054C33.3242 18.573 32.9768 18.2192 32.5523 18.2192H26.3767C25.9521 18.2192 25.6047 18.573 25.6047 19.0054C25.6047 19.4377 25.9521 19.7915 26.3767 19.7915H28.6925V28.4391H24.8328V27.6058C24.8328 27.3385 24.7016 27.087 24.4777 26.9454C21.7991 25.1923 20.2011 22.2286 20.2011 19.0054C20.2011 16.3246 21.3282 13.7617 23.2889 11.9693Z" fill="#073500"/>
<path d="M44.1315 19.7915H47.2193C47.6439 19.7915 47.9912 19.4377 47.9912 19.0053C47.9912 18.5729 47.6439 18.2192 47.2193 18.2192H44.1315C43.7069 18.2192 43.3596 18.5729 43.3596 19.0053C43.3596 19.4377 43.7069 19.7915 44.1315 19.7915Z" fill="#073500"/>
<path d="M44.1315 15.0746C44.2473 15.0746 44.3631 15.051 44.4789 14.9881L47.5667 13.4158C47.9449 13.2193 48.0993 12.7476 47.914 12.3624C47.7211 11.9772 47.2579 11.8199 46.8796 12.0086L43.7918 13.5809C43.4136 13.7775 43.2592 14.2491 43.4445 14.6344C43.5757 14.9174 43.8459 15.0746 44.1315 15.0746Z" fill="#073500"/>
<path d="M44.4789 23.0226C44.0929 22.8261 43.6297 22.9833 43.4445 23.3764C43.2515 23.7616 43.4059 24.2333 43.7918 24.4298L46.8796 26.0021C46.9877 26.0571 47.1035 26.0807 47.2193 26.0807C47.5049 26.0807 47.7751 25.9235 47.914 25.6483C48.107 25.2631 47.9526 24.7914 47.5667 24.5949L44.4789 23.0226Z" fill="#073500"/>
<path d="M11.7098 19.7915H14.7975C15.2221 19.7915 15.5695 19.4377 15.5695 19.0053C15.5695 18.5729 15.2221 18.2192 14.7975 18.2192H11.7098C11.2852 18.2192 10.9378 18.5729 10.9378 19.0053C10.9378 19.4377 11.2852 19.7915 11.7098 19.7915Z" fill="#073500"/>
<path d="M11.3624 13.4158L14.4502 14.9881C14.566 15.051 14.6818 15.0746 14.7975 15.0746C15.0832 15.0746 15.3534 14.9174 15.4923 14.6422C15.6853 14.257 15.5309 13.7853 15.1449 13.5888L12.0571 12.0165C11.6712 11.8199 11.208 11.9772 11.0227 12.3624C10.8297 12.7555 10.9841 13.2271 11.3624 13.4158Z" fill="#073500"/>
<path d="M14.4501 23.0226L11.3623 24.5948C10.9841 24.7914 10.8297 25.2631 11.015 25.6483C11.1539 25.9234 11.4241 26.0807 11.7097 26.0807C11.8255 26.0807 11.9413 26.0571 12.0571 25.9942L15.1449 24.4219C15.5231 24.2254 15.6775 23.7537 15.4923 23.3685C15.2993 22.9832 14.8361 22.826 14.4501 23.0226Z" fill="#073500"/>
</svg>
