<svg width="226" height="43" viewBox="0 0 226 43" fill="none" xmlns="http://www.w3.org/2000/svg">
<path d="M37.8526 18.36C37.3962 9.26683 29.7658 0.783426 19.3428 0.854976C9.01954 0.713676 0.664143 9.37438 0.746081 19.6996C0.827573 29.9776 8.98481 38.4664 19.5592 38.3746C29.2274 38.2905 38.4516 30.2935 37.8526 18.36ZM27.716 15.1893C27.5098 15.5619 27.3366 15.8967 27.1438 16.2189C26.6254 17.0829 26.1035 17.9451 25.5691 18.7987C25.5059 18.8995 25.3558 19.0053 25.2449 19.0066C23.9348 19.021 22.6243 19.0161 21.3142 19.0138C21.2937 19.0138 21.2736 18.985 21.2131 18.9387C21.7345 18.0585 22.2587 17.1742 22.8135 16.2373C22.9672 16.5658 23.103 16.8457 23.2295 17.1292C23.449 17.622 24.1049 17.8987 24.6077 17.7048C25.1069 17.5122 25.3932 16.8502 25.1839 16.3318C25.0334 15.9592 24.8553 15.5979 24.67 15.1888C25.7014 15.1893 26.6699 15.1893 27.716 15.1893ZM20.2748 12.4497C20.2748 12.4506 20.2748 12.451 20.2748 12.4519C20.9437 12.4519 21.613 12.465 22.2814 12.4461C22.5895 12.4375 22.7672 12.5703 22.8906 12.834C23.4512 14.0332 24.0168 15.2302 24.5761 16.4304C24.7435 16.7895 24.6536 17.109 24.3321 17.2125C23.9999 17.3196 23.8217 17.0626 23.7042 16.8169C23.2148 15.7941 22.7401 14.764 22.2711 13.7317C22.1638 13.4955 22.02 13.4149 21.7599 13.4185C20.6453 13.4343 19.5298 13.428 18.4152 13.4226C18.2758 13.4221 18.0923 13.4262 18.0068 13.3447C17.863 13.2079 17.6987 13.0068 17.6933 12.8281C17.6849 12.5563 17.9236 12.4483 18.1894 12.4488C18.8845 12.451 19.5797 12.4497 20.2748 12.4497ZM17.444 8.84158C18.0425 9.83293 18.6205 10.7901 19.2501 11.8327C18.8048 11.8327 18.4343 11.8305 18.0643 11.8332C17.5183 11.8372 17.0779 12.2787 17.0744 12.8322C17.0712 13.3461 17.4533 13.9347 18.0763 13.9054C18.429 13.8888 18.7826 13.9023 19.2341 13.9023C18.6209 14.9332 18.0434 15.903 17.423 16.9461C17.1692 16.5069 16.9381 16.0974 16.6976 15.6928C16.1877 14.8351 15.6814 13.9756 15.1551 13.1283C15.0308 12.928 15.0344 12.7854 15.1524 12.5905C15.8248 11.4817 16.4848 10.3648 17.1518 9.25243C17.2302 9.12148 17.3282 9.00313 17.444 8.84158ZM11.4109 10.5583C11.7226 10.0363 12.0339 9.51388 12.3638 9.00403C12.4289 8.90368 12.5789 8.80153 12.6911 8.80018C14.0257 8.78623 15.3603 8.79118 16.7502 8.79118C16.4732 9.27898 16.2283 9.72628 15.9682 10.1641C15.5215 10.9165 15.0709 11.6667 14.6064 12.4083C14.5423 12.5104 14.3918 12.6184 14.2805 12.6198C12.9445 12.6342 11.6086 12.6292 10.1885 12.6292C10.6222 11.8935 11.0137 11.2239 11.4109 10.5583ZM11.0947 13.1067C12.1033 13.1067 13.1124 13.117 14.1206 13.0995C14.3931 13.095 14.5485 13.1899 14.6821 13.4199C15.3532 14.5746 16.0368 15.7221 16.7533 16.9357C15.7429 16.9357 14.7788 16.9357 13.7283 16.9357C13.8588 16.7112 13.9505 16.5366 14.0574 16.3728C14.3526 15.9201 14.3232 15.3904 13.9745 14.9998C13.5475 14.5219 12.7348 14.566 12.3638 15.0921C12.2 15.3243 12.0486 15.565 11.8433 15.8742C11.2835 14.9395 10.7558 14.0593 10.1849 13.1062C10.5332 13.1067 10.8141 13.1067 11.0947 13.1067ZM11.6362 19.6263C12.2489 20.6028 12.8394 21.5941 13.4255 22.5873C13.4989 22.7115 13.5613 22.905 13.5163 23.0224C13.4549 23.1835 13.2696 23.4265 13.1663 23.413C12.9668 23.3865 12.7196 23.2492 12.611 23.08C12.0913 22.2723 11.6117 21.438 11.1165 20.614C10.9566 20.3481 10.7861 20.0893 10.6334 19.8193C10.5443 19.6623 10.4815 19.4904 10.3884 19.2834C10.5251 19.0359 10.6494 18.7812 10.7999 18.5431C11.4233 17.5554 12.0606 16.5766 12.6796 15.5866C12.9784 15.1087 13.3449 15.034 13.5617 15.4588C13.6325 15.5974 13.6161 15.8526 13.5337 15.9889C12.9223 17.0014 12.2917 18.0027 11.6491 18.9954C11.5013 19.2244 11.4848 19.3846 11.6362 19.6263ZM11.805 22.8015C11.947 23.0391 12.0891 23.2497 12.2049 23.4742C12.4431 23.9373 12.9574 24.2104 13.356 24.0696C13.8984 23.8779 14.2934 23.2294 14.1317 22.7169C14.0249 22.3776 13.8369 22.0644 13.6699 21.7066C14.6897 21.7066 15.6961 21.7066 16.7475 21.7066C16.4189 22.2651 16.1111 22.7844 15.807 23.3055C15.4218 23.9652 15.0451 24.6298 14.6501 25.2832C14.5859 25.3899 14.447 25.5195 14.3415 25.5208C13.0078 25.537 11.6736 25.5316 10.2388 25.5316C10.7843 24.5794 11.284 23.7091 11.805 22.8015ZM12.7049 29.9691C12.6105 29.9682 12.4765 29.8998 12.4284 29.821C11.7417 28.6888 11.0666 27.5499 10.3902 26.4114C10.3515 26.3461 10.3279 26.2719 10.2704 26.14C10.4437 26.14 10.5777 26.14 10.7113 26.14C11.8914 26.1387 13.071 26.1337 14.2511 26.1423C14.3664 26.1432 14.5365 26.1909 14.5877 26.275C15.3216 27.4801 16.0394 28.6947 16.8014 29.9758C15.379 29.9754 14.0418 29.9785 12.7049 29.9691ZM17.4391 29.8858C17.1514 29.425 16.8851 29.0065 16.6273 28.5826C16.1477 27.7947 15.6828 26.9973 15.1911 26.2165C15.0112 25.9308 15.0446 25.7175 15.2161 25.4353C15.8809 24.3409 16.5141 23.2272 17.1621 22.1224C17.2342 21.9996 17.3224 21.8866 17.4498 21.7012C18.0322 22.7146 18.5853 23.6767 19.1958 24.7387C18.8218 24.7387 18.5457 24.7063 18.2807 24.7477C18.0206 24.7882 17.7423 24.8566 17.525 24.997C17.1474 25.2409 16.9697 25.7157 17.0922 26.0505C17.2952 26.6049 17.5678 26.8578 18.1511 26.9266C18.4597 26.9631 18.7759 26.9329 19.2012 26.9329C18.5978 27.9445 18.0398 28.8796 17.4391 29.8858ZM24.585 22.1922C24.1014 23.2299 23.6316 24.2739 23.1569 25.3161C23.0763 25.4929 22.9957 25.6693 22.9209 25.8484C22.7841 26.176 22.5374 26.3187 22.1914 26.3169C21.5493 26.3133 20.9076 26.316 20.2655 26.316V26.3142C19.6104 26.3142 18.9554 26.3155 18.3003 26.3137C17.908 26.3128 17.6444 26.1045 17.6706 25.7872C17.7009 25.4209 17.9587 25.3399 18.2771 25.3413C19.4167 25.3462 20.5563 25.3309 21.6954 25.353C21.9915 25.3588 22.1496 25.2675 22.268 25.0033C22.7423 23.9445 23.2237 22.8888 23.7157 21.838C23.9486 21.3399 24.198 21.2571 24.5084 21.5482C24.7061 21.735 24.699 21.9474 24.585 22.1922ZM24.6928 23.4328C24.8642 23.0319 25.0285 22.6525 25.1888 22.2714C25.4427 21.6679 24.9996 20.9497 24.361 20.8989C23.6547 20.8422 23.4575 21.0321 23.0718 21.8259C22.993 21.9879 22.9391 22.1616 22.8416 22.4122C22.2729 21.4645 21.739 20.5753 21.157 19.606C21.5284 19.606 21.8561 19.6056 22.1843 19.606C23.1805 19.6083 24.1771 19.6182 25.1733 19.6092C25.399 19.6069 25.5108 19.678 25.6288 19.8823C26.2607 20.9749 26.9189 22.0518 27.5664 23.1349C27.6167 23.2191 27.6519 23.3127 27.7089 23.4333C26.6891 23.4328 25.7107 23.4328 24.6928 23.4328ZM30.7125 19.4755C29.9724 20.722 29.2185 21.96 28.4663 23.1988C28.4418 23.2389 28.4022 23.2699 28.3465 23.3298C28.0023 22.765 27.6715 22.2255 27.3437 21.6846C26.9211 20.9866 26.4905 20.2936 26.0893 19.5831C26.014 19.4499 25.9922 19.2042 26.0643 19.0809C26.7822 17.8542 27.5249 16.6423 28.2619 15.4269C28.2864 15.3868 28.3243 15.3553 28.3911 15.2802C28.7277 15.8368 29.0479 16.3624 29.3636 16.8903C29.809 17.6346 30.2561 18.3784 30.6884 19.1299C30.741 19.2217 30.7615 19.3927 30.7125 19.4755Z" fill="white"/>
<path d="M49.2602 28.8621V14.904H44.7029V11.9128H57.3645V14.904H52.8071V28.8621H49.2602Z" fill="white"/>
<path d="M62.767 28.8621V11.9128H72.4218V14.8563H66.3139V18.5832H71.9987V21.5266H66.3139V25.8943H72.4218V28.8616L62.767 28.8621Z" fill="white"/>
<path d="M85.8586 14.6665C82.8986 14.6665 81.6536 17.2302 81.6536 20.4351C81.6536 24.2097 83.063 26.1087 85.8586 26.1087C87.0334 26.1087 88.4659 25.8 90.1336 25.2069V28.2214C88.7478 28.815 87.2208 29.0998 85.5296 29.0998C80.4085 29.0998 77.9891 25.7289 77.9891 20.4117C77.9891 16.8036 79.3749 14.0734 81.6772 12.7207C82.875 12.0084 84.2609 11.6763 85.8586 11.6763C87.4796 11.6763 89.1237 12.0799 90.7682 12.8634L89.6171 15.7834C88.5599 15.2839 87.268 14.6665 85.8586 14.6665Z" fill="white"/>
<path d="M106.718 28.8621V21.5505H100.07V28.8621H96.523V11.9128H100.07V18.5593H106.718V11.9128H110.265V28.8621H106.718Z" fill="white"/>
<path d="M117.312 28.8621V11.9128H126.967V14.8563H120.859V18.5832H126.544V21.5266H120.859V25.8943H126.967V28.8616L117.312 28.8621Z" fill="white"/>
<path d="M136.199 28.8621V14.904H131.642V11.9128H144.303V14.904H139.746V28.8621H136.199Z" fill="white"/>
<path d="M158.162 21.4794C160.676 25.3012 162.32 27.7461 163.095 28.8621H159.149L155.155 22.3578H153.253V28.8621H149.706V11.9128H154.592C158.656 11.9128 161.287 13.171 161.287 16.9929C161.287 19.2955 159.877 20.7198 158.162 21.4794ZM154.333 14.8563H153.253V19.4377H154.404C156.377 19.4377 157.692 18.9157 157.692 17.0878C157.692 15.2599 156.307 14.8563 154.333 14.8563Z" fill="white"/>
<path d="M183.25 20.3639C183.25 25.7999 180.549 29.0997 175.263 29.0997C169.978 29.0997 167.276 25.7765 167.276 20.3405C167.276 14.8806 169.978 11.6523 175.286 11.6523C180.596 11.6519 183.25 14.904 183.25 20.3639ZM171.012 20.3639C171.012 23.7587 172.139 26.0847 175.264 26.0847C178.106 26.0847 179.515 24.1857 179.515 20.3639C179.515 16.542 178.106 14.643 175.287 14.643C172.162 14.643 171.012 16.9691 171.012 20.3639Z" fill="white"/>
<path d="M199.882 28.8621L192.576 16.0434H192.482C192.623 18.2983 192.694 19.9129 192.694 20.8858V28.8621H189.522V11.9128H194.009L201.291 24.6127H201.362C201.244 22.405 201.197 20.862 201.197 19.9363V11.9128H204.391V28.8621H199.882Z" fill="white"/>
<path d="M147.946 35.8984L145.871 42.0607H144.462L142.395 35.8984H143.702L144.846 39.5664C144.932 39.8683 145.119 40.6194 145.171 40.9213C145.197 40.6626 145.307 40.2135 145.487 39.5664L146.64 35.8984H147.946Z" fill="white"/>
<path d="M154.345 42.0607V35.8984H157.855V36.9685H155.635V38.3235H157.701V39.3936H155.635V40.9816H157.855V42.0603L154.345 42.0607Z" fill="white"/>
<path d="M168.533 42.0607L165.877 37.4001H165.843C165.894 38.22 165.919 38.8068 165.919 39.1609V42.0607H164.766V35.8984H166.397L169.045 40.5159H169.071C169.028 39.7131 169.011 39.1524 169.011 38.8158V35.8989H170.173V42.0607H168.533Z" fill="white"/>
<path d="M178.399 42.0607V36.9861H176.742V35.8984H181.346V36.9861H179.689V42.0607H178.399Z" fill="white"/>
<path d="M191.596 39.6613V35.8984H192.886V39.8859C192.886 40.8786 192.399 41.5342 191.707 41.8708C191.323 42.0522 190.879 42.1471 190.358 42.1471C188.855 42.1471 187.881 41.3443 187.881 39.8688V35.8989H189.171V39.6703C189.171 40.6023 189.487 41.0514 190.392 41.0514C191.271 41.0509 191.596 40.5762 191.596 39.6613Z" fill="white"/>
<path d="M203.085 39.3765C203.999 40.7661 204.597 41.6548 204.879 42.0607H203.444L201.993 39.696H201.301V42.0607H200.011V35.8984H201.788C203.265 35.8984 204.222 36.3556 204.222 37.7452C204.221 38.5827 203.708 39.1006 203.085 39.3765ZM201.693 36.9685H201.301V38.6344H201.719C202.436 38.6344 202.914 38.4445 202.914 37.7799C202.914 37.1157 202.411 36.9685 201.693 36.9685Z" fill="white"/>
<path d="M211.286 42.0607V35.8984H214.797V36.9685H212.576V38.3235H214.643V39.3936H212.576V40.9816H214.797V42.0603L211.286 42.0607Z" fill="white"/>
<path d="M222.664 37.5211C222.664 37.7974 222.809 37.9442 222.997 38.0733C223.108 38.1512 223.381 38.2979 223.817 38.5049C224.389 38.7812 224.773 39.057 224.987 39.3333C225.201 39.6096 225.303 39.9462 225.303 40.3516C225.303 41.577 224.329 42.1467 223.057 42.1467C222.408 42.1467 221.836 42.0257 221.332 41.7754V40.5586C221.742 40.74 222.092 40.8696 222.374 40.947C222.656 41.0248 222.921 41.0681 223.16 41.0681C223.673 41.0681 224.04 40.8953 224.04 40.412C224.04 40.1186 223.843 39.9548 223.638 39.8166C223.51 39.7302 223.254 39.592 222.852 39.4026C222.485 39.2212 222.204 39.0489 222.016 38.8847C221.674 38.5827 221.401 38.1858 221.401 37.5643C221.401 36.3993 222.272 35.8125 223.467 35.8125C224.202 35.8125 224.723 35.9938 225.278 36.244L224.859 37.2624C224.535 37.1328 224.262 37.0379 224.048 36.9861C223.834 36.9344 223.629 36.8997 223.425 36.8997C222.989 36.8997 222.664 37.1067 222.664 37.5211Z" fill="white"/>
</svg>
