<svg width="576" height="255" viewBox="0 0 576 255" fill="none" xmlns="http://www.w3.org/2000/svg">
<path d="M50.5176 69H38.0078V49.1074H18.3545V69H5.81055V19.6787H18.3545V39.0244H38.0078V19.6787H50.5176V69ZM61.0449 69V30.958H73.1445V69H61.0449ZM67.0947 26.5488C62.8564 26.5488 60.293 24.3955 60.293 21.1826C60.293 17.9355 62.8564 15.7822 67.0947 15.7822C71.3672 15.7822 73.9307 17.9355 73.9307 21.1826C73.9307 24.3955 71.3672 26.5488 67.0947 26.5488ZM85.6543 22.2422H97.7197V31.4707H105.376V40.46H97.7197V55.875C97.7197 58.7461 99.1895 60.1475 102.334 60.1475C103.735 60.1475 104.487 60.0791 105.376 59.9766V68.5898C104.111 68.8633 101.89 69.0684 99.5996 69.0684C89.585 69.0684 85.6543 66.0264 85.6543 58.5752V40.46H79.8096V31.4707H85.6543V22.2422ZM129.911 17.2H140.271V39.46H140.761C141.648 37.3133 142.931 35.54 144.611 34.14C146.291 32.74 148.578 32.04 151.471 32.04C153.478 32.04 155.298 32.4133 156.931 33.16C158.611 33.9067 160.035 35.05 161.201 36.59C162.415 38.13 163.348 40.09 164.001 42.47C164.701 44.85 165.051 47.6733 165.051 50.94C165.051 54.2067 164.701 57.03 164.001 59.41C163.348 61.79 162.415 63.75 161.201 65.29C160.035 66.83 158.611 67.9733 156.931 68.72C155.298 69.4667 153.478 69.84 151.471 69.84C148.578 69.84 146.291 69.1633 144.611 67.81C142.931 66.41 141.648 64.6133 140.761 62.42H140.271V69H129.911V17.2ZM146.991 61.79C149.325 61.79 151.121 61.09 152.381 59.69C153.641 58.2433 154.271 56.26 154.271 53.74V48.14C154.271 45.62 153.641 43.66 152.381 42.26C151.121 40.8133 149.325 40.09 146.991 40.09C145.171 40.09 143.585 40.5333 142.231 41.42C140.925 42.3067 140.271 43.7067 140.271 45.62V56.26C140.271 58.1733 140.925 59.5733 142.231 60.46C143.585 61.3467 145.171 61.79 146.991 61.79ZM201.844 69C199.697 69 197.971 68.4633 196.664 67.39C195.357 66.27 194.587 64.6833 194.354 62.63H194.004C193.351 65.01 192.044 66.8067 190.084 68.02C188.171 69.2333 185.814 69.84 183.014 69.84C179.514 69.84 176.691 68.9067 174.544 67.04C172.444 65.1267 171.394 62.4667 171.394 59.06C171.394 55.28 172.771 52.48 175.524 50.66C178.277 48.84 182.314 47.93 187.634 47.93H193.444V46.11C193.444 43.9633 192.931 42.3533 191.904 41.28C190.924 40.16 189.244 39.6 186.864 39.6C184.671 39.6 182.897 40.02 181.544 40.86C180.191 41.7 179.024 42.7967 178.044 44.15L172.374 39.11C173.587 37.0567 175.477 35.3767 178.044 34.07C180.657 32.7167 183.994 32.04 188.054 32.04C193.001 32.04 196.851 33.1833 199.604 35.47C202.404 37.71 203.804 41.1167 203.804 45.69V61.51H207.794V69H201.844ZM186.934 63.05C188.754 63.05 190.294 62.6067 191.554 61.72C192.814 60.8333 193.444 59.55 193.444 57.87V53.53H187.914C183.667 53.53 181.544 54.9533 181.544 57.8V59.2C181.544 60.46 182.034 61.4167 183.014 62.07C183.994 62.7233 185.301 63.05 186.934 63.05ZM232.197 69.84C229.35 69.84 226.783 69.42 224.497 68.58C222.257 67.6933 220.343 66.4333 218.757 64.8C217.217 63.1667 216.027 61.1833 215.187 58.85C214.347 56.5167 213.927 53.88 213.927 50.94C213.927 48 214.347 45.3633 215.187 43.03C216.027 40.6967 217.217 38.7133 218.757 37.08C220.343 35.4467 222.257 34.21 224.497 33.37C226.783 32.4833 229.327 32.04 232.127 32.04C236.093 32.04 239.267 32.8567 241.647 34.49C244.073 36.0767 245.917 38.2 247.177 40.86L239.197 45.2C238.543 43.8 237.68 42.6333 236.607 41.7C235.58 40.7667 234.087 40.3 232.127 40.3C229.747 40.3 227.903 41 226.597 42.4C225.337 43.7533 224.707 45.62 224.707 48V53.88C224.707 56.26 225.337 58.15 226.597 59.55C227.903 60.9033 229.793 61.58 232.267 61.58C234.273 61.58 235.837 61.1133 236.957 60.18C238.123 59.2467 239.103 58.0333 239.897 56.54L247.737 61.02C246.43 63.68 244.517 65.8267 241.997 67.46C239.523 69.0467 236.257 69.84 232.197 69.84ZM256.249 17.2H266.609V46.6H267.099L271.929 40.93L279.489 32.88H291.389L277.389 47.16L292.859 69H280.539L270.039 53.04L266.609 56.47V69H256.249V17.2ZM314.252 69.84C310.239 69.84 306.739 69.2333 303.752 68.02C300.812 66.8067 298.595 65.15 297.102 63.05L302.912 57.66C304.312 59.2 305.945 60.4133 307.812 61.3C309.725 62.14 311.895 62.56 314.322 62.56C316.375 62.56 317.985 62.2567 319.152 61.65C320.319 60.9967 320.902 60.0167 320.902 58.71C320.902 57.6833 320.505 56.9833 319.712 56.61C318.919 56.19 317.822 55.8633 316.422 55.63L310.612 54.72C308.979 54.4867 307.462 54.1367 306.062 53.67C304.662 53.1567 303.449 52.48 302.422 51.64C301.395 50.8 300.579 49.7733 299.972 48.56C299.365 47.3467 299.062 45.8767 299.062 44.15C299.062 40.37 300.509 37.4067 303.402 35.26C306.295 33.1133 310.355 32.04 315.582 32.04C319.129 32.04 322.139 32.53 324.612 33.51C327.132 34.4433 329.139 35.7967 330.632 37.57L325.452 43.45C324.379 42.2833 323.002 41.3033 321.322 40.51C319.642 39.7167 317.612 39.32 315.232 39.32C311.219 39.32 309.212 40.5333 309.212 42.96C309.212 44.0333 309.609 44.78 310.402 45.2C311.195 45.5733 312.292 45.8767 313.692 46.11L319.432 47.02C321.065 47.2533 322.582 47.6267 323.982 48.14C325.382 48.6067 326.595 49.26 327.622 50.1C328.695 50.94 329.535 51.9667 330.142 53.18C330.749 54.3933 331.052 55.8633 331.052 57.59C331.052 61.37 329.582 64.3567 326.642 66.55C323.749 68.7433 319.619 69.84 314.252 69.84ZM339.775 32.88H350.135V39.46H350.625C351.511 37.3133 352.795 35.54 354.475 34.14C356.155 32.74 358.441 32.04 361.335 32.04C363.341 32.04 365.161 32.4133 366.795 33.16C368.475 33.9067 369.898 35.05 371.065 36.59C372.278 38.13 373.211 40.09 373.865 42.47C374.565 44.85 374.915 47.6733 374.915 50.94C374.915 54.2067 374.565 57.03 373.865 59.41C373.211 61.79 372.278 63.75 371.065 65.29C369.898 66.83 368.475 67.9733 366.795 68.72C365.161 69.4667 363.341 69.84 361.335 69.84C358.441 69.84 356.155 69.1633 354.475 67.81C352.795 66.41 351.511 64.6133 350.625 62.42H350.135V83H339.775V32.88ZM356.855 61.79C359.188 61.79 360.985 61.09 362.245 59.69C363.505 58.2433 364.135 56.26 364.135 53.74V48.14C364.135 45.62 363.505 43.66 362.245 42.26C360.985 40.8133 359.188 40.09 356.855 40.09C355.035 40.09 353.448 40.5333 352.095 41.42C350.788 42.3067 350.135 43.7067 350.135 45.62V56.26C350.135 58.1733 350.788 59.5733 352.095 60.46C353.448 61.3467 355.035 61.79 356.855 61.79ZM411.707 69C409.561 69 407.834 68.4633 406.527 67.39C405.221 66.27 404.451 64.6833 404.217 62.63H403.867C403.214 65.01 401.907 66.8067 399.947 68.02C398.034 69.2333 395.677 69.84 392.877 69.84C389.377 69.84 386.554 68.9067 384.407 67.04C382.307 65.1267 381.257 62.4667 381.257 59.06C381.257 55.28 382.634 52.48 385.387 50.66C388.141 48.84 392.177 47.93 397.497 47.93H403.307V46.11C403.307 43.9633 402.794 42.3533 401.767 41.28C400.787 40.16 399.107 39.6 396.727 39.6C394.534 39.6 392.761 40.02 391.407 40.86C390.054 41.7 388.887 42.7967 387.907 44.15L382.237 39.11C383.451 37.0567 385.341 35.3767 387.907 34.07C390.521 32.7167 393.857 32.04 397.917 32.04C402.864 32.04 406.714 33.1833 409.467 35.47C412.267 37.71 413.667 41.1167 413.667 45.69V61.51H417.657V69H411.707ZM396.797 63.05C398.617 63.05 400.157 62.6067 401.417 61.72C402.677 60.8333 403.307 59.55 403.307 57.87V53.53H397.777C393.531 53.53 391.407 54.9533 391.407 57.8V59.2C391.407 60.46 391.897 61.4167 392.877 62.07C393.857 62.7233 395.164 63.05 396.797 63.05ZM442.06 69.84C439.213 69.84 436.647 69.42 434.36 68.58C432.12 67.6933 430.207 66.4333 428.62 64.8C427.08 63.1667 425.89 61.1833 425.05 58.85C424.21 56.5167 423.79 53.88 423.79 50.94C423.79 48 424.21 45.3633 425.05 43.03C425.89 40.6967 427.08 38.7133 428.62 37.08C430.207 35.4467 432.12 34.21 434.36 33.37C436.647 32.4833 439.19 32.04 441.99 32.04C445.957 32.04 449.13 32.8567 451.51 34.49C453.937 36.0767 455.78 38.2 457.04 40.86L449.06 45.2C448.407 43.8 447.543 42.6333 446.47 41.7C445.443 40.7667 443.95 40.3 441.99 40.3C439.61 40.3 437.767 41 436.46 42.4C435.2 43.7533 434.57 45.62 434.57 48V53.88C434.57 56.26 435.2 58.15 436.46 59.55C437.767 60.9033 439.657 61.58 442.13 61.58C444.137 61.58 445.7 61.1133 446.82 60.18C447.987 59.2467 448.967 58.0333 449.76 56.54L457.6 61.02C456.293 63.68 454.38 65.8267 451.86 67.46C449.387 69.0467 446.12 69.84 442.06 69.84ZM483.543 69.84C477.476 69.84 472.879 68.16 469.753 64.8C466.626 61.44 465.063 56.8667 465.063 51.08C465.063 48.14 465.459 45.5033 466.253 43.17C467.093 40.79 468.259 38.7833 469.753 37.15C471.293 35.47 473.136 34.21 475.283 33.37C477.476 32.4833 479.926 32.04 482.633 32.04C485.339 32.04 487.766 32.4833 489.913 33.37C492.059 34.21 493.879 35.4233 495.373 37.01C496.866 38.5967 498.009 40.5333 498.803 42.82C499.643 45.06 500.063 47.58 500.063 50.38V53.46H475.353V54.09C475.353 56.4233 476.076 58.3133 477.523 59.76C478.969 61.16 481.093 61.86 483.893 61.86C486.039 61.86 487.883 61.4633 489.423 60.67C490.963 59.83 492.293 58.7333 493.413 57.38L499.013 63.47C497.613 65.1967 495.653 66.69 493.133 67.95C490.613 69.21 487.416 69.84 483.543 69.84ZM482.703 39.46C480.463 39.46 478.666 40.16 477.313 41.56C476.006 42.9133 475.353 44.7567 475.353 47.09V47.65H489.913V47.09C489.913 44.71 489.259 42.8433 487.953 41.49C486.693 40.1367 484.943 39.46 482.703 39.46ZM37.29 154L34.2139 143.165H18.1152L14.9365 154H2.49512L19.0381 104.679H34.3848L50.9619 154H37.29ZM25.9082 115.787L20.5078 134.142H31.8555L26.5576 115.787H25.9082ZM58.1738 154V115.958H69.9316V122.145H70.5811C72.2559 117.838 76.2207 115.069 81.7236 115.069C90.2002 115.069 94.6094 120.299 94.6094 129.425V154H82.5098V132.125C82.5098 127.511 80.6299 124.947 76.5283 124.947C72.5977 124.947 70.2393 127.887 70.2393 132.262V154H58.1738ZM117.1 154.581C107.563 154.581 101.821 147.13 101.821 134.894C101.821 122.76 107.598 115.377 117.1 115.377C122.192 115.377 126.294 117.872 128.174 122.076H128.823V101.705H140.923V154H129.131V148.053H128.481C126.602 152.154 122.397 154.581 117.1 154.581ZM121.543 124.879C116.963 124.879 114.229 128.707 114.229 134.962C114.229 141.285 116.929 145.079 121.543 145.079C126.157 145.079 128.892 141.285 128.892 134.996C128.892 128.741 126.123 124.879 121.543 124.879ZM202.412 143.644V154H168.916V104.679H181.46V143.644H202.412ZM225.894 123.648C221.929 123.648 219.16 126.417 218.853 130.724H232.661C232.456 126.28 229.927 123.648 225.894 123.648ZM233.105 142.789H244.146C242.812 150.206 235.84 154.889 225.996 154.889C213.862 154.889 206.89 147.711 206.89 135.235C206.89 122.691 214.033 115.069 225.825 115.069C237.549 115.069 244.385 122.179 244.385 134.312V137.662H218.784V138.277C218.887 143.233 221.724 146.31 226.338 146.31C229.858 146.31 232.285 145.011 233.105 142.789ZM254.912 107.242H266.978V116.471H274.634V125.46H266.978V140.875C266.978 143.746 268.447 145.147 271.592 145.147C272.993 145.147 273.745 145.079 274.634 144.977V153.59C273.369 153.863 271.147 154.068 268.857 154.068C258.843 154.068 254.912 151.026 254.912 143.575V125.46H249.067V116.471H254.912V107.242ZM313.428 104.679V135.646C313.428 141.388 316.572 144.771 322.144 144.771C327.715 144.771 330.825 141.388 330.825 135.646V104.679H343.369V136.979C343.369 148.053 334.961 155.333 322.144 155.333C309.326 155.333 300.884 148.053 300.884 136.979V104.679H313.428ZM353.11 127.408C353.11 119.854 359.57 115.069 369.824 115.069C380.352 115.069 386.128 119.137 386.572 126.793H375.566C375.225 124.571 373.208 123.238 369.927 123.238C366.782 123.238 364.595 124.605 364.595 126.656C364.595 128.263 365.962 129.22 368.97 129.869L376.831 131.476C384.316 133.048 387.563 136.158 387.563 141.935C387.563 149.83 380.625 154.889 369.995 154.889C359.092 154.889 352.871 150.753 352.188 143.097H363.843C364.458 145.455 366.611 146.72 370.166 146.72C373.481 146.72 375.635 145.387 375.635 143.336C375.635 141.729 374.507 140.875 371.465 140.226L364.39 138.722C356.836 137.115 353.11 133.39 353.11 127.408ZM32.0264 239H19.5166V222.047L2.49512 189.679H15.8594L25.4639 209.811H26.1133L35.6494 189.679H49.0137L32.0264 222.047V239ZM66.6504 239.889C54.4824 239.889 47.2705 232.472 47.2705 219.962C47.2705 207.657 54.6875 200.069 66.6504 200.069C78.6816 200.069 86.0303 207.589 86.0303 219.962C86.0303 232.506 78.8525 239.889 66.6504 239.889ZM66.6504 230.66C71.0938 230.66 73.623 226.729 73.623 219.962C73.623 213.331 71.0254 209.298 66.6504 209.298C62.2754 209.298 59.6777 213.331 59.6777 219.962C59.6777 226.764 62.207 230.66 66.6504 230.66ZM129.951 200.958V239H118.193V232.848H117.544C115.767 237.325 112.485 239.889 106.743 239.889C98.6768 239.889 93.2422 234.591 93.2422 225.807V200.958H105.308V222.833C105.308 227.481 107.598 229.942 111.494 229.942C115.63 229.942 117.852 227.14 117.852 222.696V200.958H129.951ZM139.385 239V200.958H151.143V207.213H151.792C152.715 203.385 156.406 200.377 161.157 200.377C162.764 200.377 164.644 200.582 165.532 200.958V211.246C164.609 210.87 162.183 210.562 160.337 210.562C155.005 210.562 151.45 213.57 151.45 218.868V239H139.385Z" fill="white"/>
<path d="M429.747 154.84C423.214 154.84 418.36 152.647 415.187 148.26C412.06 143.827 410.497 137.597 410.497 129.57C410.497 121.543 412.06 115.337 415.187 110.95C418.36 106.517 423.214 104.3 429.747 104.3C432.267 104.3 434.484 104.65 436.397 105.35C438.357 106.003 440.037 106.937 441.437 108.15C442.837 109.363 443.98 110.833 444.867 112.56C445.8 114.287 446.524 116.223 447.037 118.37L437.237 120.75C436.957 119.583 436.63 118.51 436.257 117.53C435.884 116.55 435.394 115.71 434.787 115.01C434.227 114.31 433.504 113.773 432.617 113.4C431.777 112.98 430.75 112.77 429.537 112.77C426.69 112.77 424.66 113.89 423.447 116.13C422.28 118.323 421.697 121.38 421.697 125.3V133.84C421.697 137.76 422.28 140.84 423.447 143.08C424.66 145.273 426.69 146.37 429.537 146.37C431.964 146.37 433.714 145.623 434.787 144.13C435.907 142.637 436.724 140.723 437.237 138.39L447.037 140.77C446.524 142.917 445.8 144.853 444.867 146.58C443.98 148.307 442.837 149.8 441.437 151.06C440.037 152.273 438.357 153.207 436.397 153.86C434.484 154.513 432.267 154.84 429.747 154.84ZM473.4 154C469.666 154 466.89 153.02 465.07 151.06C463.25 149.1 462.34 146.603 462.34 143.57V125.93H452.54V117.88H458.91C460.45 117.88 461.546 117.577 462.2 116.97C462.853 116.363 463.18 115.243 463.18 113.61V105.14H472.7V117.88H486.77V125.93H472.7V145.95H486.77V154H473.4ZM496.752 145.95H505.082V125.93H496.752V117.88H515.442V128.1H515.932C516.259 126.793 516.702 125.533 517.262 124.32C517.869 123.06 518.616 121.963 519.502 121.03C520.436 120.05 521.556 119.28 522.862 118.72C524.169 118.16 525.709 117.88 527.482 117.88H530.912V127.4H523.212C520.646 127.4 518.709 128.17 517.402 129.71C516.096 131.203 515.442 133.047 515.442 135.24V145.95H527.342V154H496.752V145.95ZM538.305 145.95H549.365V110.25H538.305V102.2H559.725V145.95H570.785V154H538.305V145.95ZM204.527 239.84C200.42 239.84 196.85 239.163 193.817 237.81C190.784 236.457 188.334 234.613 186.467 232.28L192.557 225.56C194.33 227.52 196.267 228.967 198.367 229.9C200.514 230.833 202.684 231.3 204.877 231.3C207.397 231.3 209.31 230.74 210.617 229.62C211.924 228.5 212.577 226.89 212.577 224.79C212.577 223.063 212.064 221.757 211.037 220.87C210.057 219.983 208.377 219.353 205.997 218.98L200.887 218.14C196.5 217.393 193.327 215.783 191.367 213.31C189.407 210.79 188.427 207.733 188.427 204.14C188.427 199.427 189.967 195.787 193.047 193.22C196.127 190.607 200.444 189.3 205.997 189.3C209.777 189.3 213.067 189.883 215.867 191.05C218.667 192.217 220.93 193.803 222.657 195.81L216.707 202.46C215.4 201.013 213.86 199.893 212.087 199.1C210.314 198.26 208.307 197.84 206.067 197.84C201.354 197.84 198.997 199.777 198.997 203.65C198.997 205.33 199.51 206.59 200.537 207.43C201.61 208.27 203.337 208.9 205.717 209.32L210.827 210.23C214.794 210.93 217.85 212.423 219.997 214.71C222.144 216.997 223.217 220.077 223.217 223.95C223.217 226.237 222.82 228.36 222.027 230.32C221.234 232.233 220.044 233.913 218.457 235.36C216.87 236.76 214.91 237.857 212.577 238.65C210.29 239.443 207.607 239.84 204.527 239.84ZM230.82 187.2H241.18V209.46H241.6C242.02 208.433 242.533 207.477 243.14 206.59C243.746 205.703 244.47 204.933 245.31 204.28C246.196 203.58 247.2 203.043 248.32 202.67C249.486 202.25 250.793 202.04 252.24 202.04C253.966 202.04 255.553 202.343 257 202.95C258.446 203.51 259.683 204.373 260.71 205.54C261.736 206.707 262.53 208.13 263.09 209.81C263.696 211.49 264 213.427 264 215.62V239H253.64V217.02C253.64 212.353 251.61 210.02 247.55 210.02C246.756 210.02 245.963 210.137 245.17 210.37C244.423 210.557 243.746 210.883 243.14 211.35C242.533 211.77 242.043 212.307 241.67 212.96C241.343 213.613 241.18 214.383 241.18 215.27V239H230.82V187.2ZM291.482 198.26C289.149 198.26 287.516 197.793 286.582 196.86C285.696 195.88 285.252 194.713 285.252 193.36V191.33C285.252 189.93 285.696 188.763 286.582 187.83C287.516 186.897 289.149 186.43 291.482 186.43C293.816 186.43 295.426 186.897 296.312 187.83C297.246 188.763 297.712 189.93 297.712 191.33V193.36C297.712 194.713 297.246 195.88 296.312 196.86C295.426 197.793 293.816 198.26 291.482 198.26ZM274.822 230.95H286.302V210.93H274.822V202.88H296.662V230.95H307.302V239H274.822V230.95ZM315.185 230.95H325.825V210.93H314.485V202.88H325.825V197.63C325.825 194.55 326.712 192.053 328.485 190.14C330.305 188.18 333.105 187.2 336.885 187.2H349.135V195.25H336.185V202.88H349.135V210.93H336.185V230.95H347.525V239H315.185V230.95ZM375.988 239C372.254 239 369.478 238.02 367.658 236.06C365.838 234.1 364.928 231.603 364.928 228.57V210.93H355.128V202.88H361.498C363.038 202.88 364.134 202.577 364.788 201.97C365.441 201.363 365.768 200.243 365.768 198.61V190.14H375.288V202.88H389.358V210.93H375.288V230.95H389.358V239H375.988Z" fill="#ADFF00"/>
<path d="M126.875 82.5C134.326 85.8333 141.778 85.8333 149.229 82.5C156.681 79.1667 164.132 79.1667 171.584 82.5C179.035 85.8333 186.487 85.8333 193.938 82.5C201.39 79.1667 208.841 79.1667 216.293 82.5C223.744 85.8333 231.196 85.8333 238.647 82.5C246.099 79.1667 253.55 79.1667 261.002 82.5C268.453 85.8333 275.905 85.8333 283.356 82.5C290.808 79.1667 298.259 79.1667 305.711 82.5C313.162 85.8333 320.614 85.8333 328.065 82.5" stroke="#8ED200" stroke-width="1.5" stroke-linecap="round" stroke-linejoin="round"/>
<path d="M360.875 82.5C368.326 85.8333 375.778 85.8333 383.229 82.5C390.681 79.1667 398.132 79.1667 405.584 82.5C413.035 85.8333 420.487 85.8333 427.938 82.5C435.39 79.1667 442.841 79.1667 450.293 82.5C457.744 85.8333 465.196 85.8333 472.647 82.5C480.099 79.1667 487.55 79.1667 495.002 82.5C502.453 85.8333 504.905 85.8333 512.356 82.5" stroke="#8ED200" stroke-width="1.5" stroke-linecap="round" stroke-linejoin="round"/>
</svg>
