<svg width="217" height="41" viewBox="0 0 217 41" fill="none" xmlns="http://www.w3.org/2000/svg">
<path d="M36.3182 17.4994C35.8798 8.81037 28.5505 0.704011 18.539 0.772381C8.62323 0.637361 0.597652 8.91314 0.676355 18.7795C0.754631 28.6007 8.58987 36.7122 18.7468 36.6245C28.0334 36.5441 36.8935 28.9026 36.3182 17.4994ZM26.5817 14.4696C26.3836 14.8256 26.2172 15.1456 26.032 15.4534C25.5341 16.279 25.0328 17.1029 24.5196 17.9186C24.4588 18.015 24.3147 18.116 24.2082 18.1173C22.9498 18.1311 21.6909 18.1263 20.4326 18.1242C20.4129 18.1242 20.3936 18.0967 20.3355 18.0524C20.8363 17.2113 21.3398 16.3663 21.8727 15.4711C22.0203 15.785 22.1508 16.0524 22.2722 16.3233C22.4831 16.7942 23.1132 17.0586 23.5961 16.8733C24.0756 16.6893 24.3506 16.0567 24.1496 15.5614C24.005 15.2053 23.8339 14.86 23.656 14.4692C24.6466 14.4696 25.5769 14.4696 26.5817 14.4696ZM19.4342 11.8518C19.4342 11.8526 19.4342 11.8531 19.4342 11.8539C20.0767 11.8539 20.7196 11.8664 21.3616 11.8483C21.6576 11.8402 21.8282 11.967 21.9467 12.219C22.4852 13.3649 23.0285 14.5087 23.5657 15.6555C23.7265 15.9987 23.6401 16.304 23.3313 16.4029C23.0122 16.5052 22.8411 16.2597 22.7282 16.0249C22.2581 15.0475 21.8022 14.0633 21.3518 13.0768C21.2487 12.8511 21.1105 12.7741 20.8607 12.7776C19.7901 12.7926 18.7186 12.7866 17.648 12.7814C17.5141 12.781 17.3379 12.7849 17.2558 12.707C17.1176 12.5763 16.9598 12.3841 16.9546 12.2134C16.9465 11.9537 17.1758 11.8505 17.4311 11.8509C18.0988 11.8531 18.7665 11.8518 19.4342 11.8518ZM16.7151 8.40402C17.29 9.35131 17.8452 10.2659 18.45 11.2622C18.0223 11.2622 17.6664 11.2601 17.3109 11.2627C16.7865 11.2665 16.3635 11.6884 16.3601 12.2173C16.3571 12.7083 16.7241 13.2708 17.3225 13.2428C17.6613 13.2269 18.0009 13.2398 18.4346 13.2398C17.8456 14.2249 17.2908 15.1516 16.695 16.1483C16.4512 15.7286 16.2292 15.3373 15.9982 14.9508C15.5085 14.1312 15.0221 13.3099 14.5166 12.5002C14.3972 12.3089 14.4006 12.1725 14.514 11.9864C15.1599 10.9268 15.7938 9.85957 16.4345 8.79661C16.5098 8.67148 16.6039 8.55839 16.7151 8.40402ZM10.9202 10.0445C11.2196 9.54567 11.5186 9.04644 11.8355 8.55925C11.898 8.46336 12.0421 8.36575 12.1499 8.36446C13.4318 8.35113 14.7137 8.35586 16.0487 8.35586C15.7826 8.82198 15.5474 9.2494 15.2976 9.66779C14.8686 10.3868 14.4357 11.1036 13.9896 11.8122C13.928 11.9098 13.7834 12.013 13.6765 12.0143C12.3933 12.0281 11.1101 12.0233 9.74603 12.0233C10.1626 11.3203 10.5386 10.6804 10.9202 10.0445ZM10.6165 12.4796C11.5853 12.4796 12.5545 12.4895 13.5229 12.4727C13.7847 12.4684 13.934 12.5591 14.0623 12.7788C14.7069 13.8822 15.3635 14.9787 16.0517 16.1384C15.0812 16.1384 14.1551 16.1384 13.1461 16.1384C13.2714 15.9239 13.3595 15.757 13.4622 15.6005C13.7458 15.1679 13.7175 14.6618 13.3826 14.2886C12.9724 13.8319 12.1918 13.8741 11.8355 14.3767C11.6781 14.5986 11.5327 14.8287 11.3355 15.1241C10.7978 14.231 10.291 13.3899 9.74261 12.4791C10.0771 12.4796 10.347 12.4796 10.6165 12.4796ZM11.1366 18.7094C11.7252 19.6425 12.2923 20.5898 12.8552 21.5388C12.9258 21.6575 12.9857 21.8424 12.9425 21.9546C12.8835 22.1086 12.7055 22.3408 12.6063 22.3279C12.4147 22.3025 12.1773 22.1713 12.0729 22.0097C11.5737 21.2378 11.1131 20.4406 10.6374 19.6533C10.4839 19.3991 10.3201 19.1519 10.1733 18.8939C10.0878 18.7438 10.0275 18.5795 9.93809 18.3817C10.0694 18.1452 10.1887 17.9019 10.3333 17.6744C10.9321 16.7305 11.5442 15.7953 12.1388 14.8493C12.4258 14.3926 12.7778 14.3213 12.9861 14.7272C13.0541 14.8596 13.0383 15.1034 12.9592 15.2337C12.3719 16.2012 11.7662 17.158 11.149 18.1065C11.007 18.3254 10.9912 18.4785 11.1366 18.7094ZM11.2987 21.7435C11.4352 21.9705 11.5716 22.1718 11.6828 22.3863C11.9117 22.8288 12.4057 23.0898 12.7885 22.9552C13.3095 22.772 13.6889 22.1524 13.5336 21.6626C13.431 21.3384 13.2505 21.0391 13.0901 20.6973C14.0696 20.6973 15.0363 20.6973 16.0461 20.6973C15.7305 21.2309 15.4349 21.7271 15.1428 22.2251C14.7728 22.8555 14.4109 23.4906 14.0315 24.1149C13.9699 24.2168 13.8365 24.3407 13.7351 24.342C12.454 24.3575 11.1725 24.3523 9.79437 24.3523C10.3183 23.4424 10.7983 22.6108 11.2987 21.7435ZM12.1632 28.5925C12.0725 28.5917 11.9437 28.5263 11.8975 28.4511C11.238 27.3692 10.5895 26.2808 9.9398 25.1929C9.90259 25.1306 9.87992 25.0596 9.82474 24.9337C9.99113 24.9337 10.1199 24.9337 10.2482 24.9337C11.3817 24.9324 12.5148 24.9276 13.6483 24.9358C13.759 24.9367 13.9224 24.9822 13.9716 25.0627C14.6765 26.2142 15.366 27.3748 16.0979 28.599C14.7317 28.5985 13.4472 28.6016 12.1632 28.5925ZM16.7104 28.513C16.4341 28.0727 16.1783 27.6728 15.9306 27.2677C15.47 26.5148 15.0234 25.7528 14.5512 25.0068C14.3784 24.7337 14.4105 24.5299 14.5752 24.2603C15.2138 23.2145 15.822 22.1503 16.4444 21.0946C16.5136 20.9772 16.5983 20.8693 16.7207 20.6921C17.2801 21.6605 17.8114 22.5798 18.3978 23.5946C18.0385 23.5946 17.7733 23.5637 17.5188 23.6032C17.269 23.6419 17.0017 23.7073 16.793 23.8415C16.4302 24.0745 16.2596 24.5282 16.3772 24.8481C16.5722 25.3778 16.834 25.6195 17.3944 25.6853C17.6908 25.7201 17.9945 25.6913 18.403 25.6913C17.8234 26.658 17.2874 27.5515 16.7104 28.513ZM23.5743 21.1613C23.1097 22.1528 22.6585 23.1504 22.2025 24.1463C22.1251 24.3153 22.0477 24.4839 21.9758 24.655C21.8445 24.9681 21.6075 25.1044 21.2752 25.1026C20.6584 25.0992 20.042 25.1018 19.4252 25.1018V25.1001C18.796 25.1001 18.1668 25.1014 17.5376 25.0996C17.1608 25.0988 16.9076 24.8997 16.9328 24.5965C16.9619 24.2465 17.2096 24.1691 17.5154 24.1704C18.61 24.1751 19.7045 24.1605 20.7987 24.1816C21.0831 24.1872 21.235 24.0999 21.3488 23.8475C21.8043 22.8357 22.2667 21.8269 22.7393 20.8229C22.963 20.3468 23.2026 20.2677 23.5007 20.5459C23.6906 20.7244 23.6838 20.9273 23.5743 21.1613ZM23.6778 22.3468C23.8424 21.9636 24.0003 21.6012 24.1543 21.2369C24.3981 20.6603 23.9725 19.974 23.3591 19.9254C22.6807 19.8713 22.4912 20.0527 22.1208 20.8112C22.0451 20.966 21.9934 21.132 21.8997 21.3715C21.3535 20.466 20.8406 19.6163 20.2816 18.6901C20.6383 18.6901 20.9531 18.6896 21.2683 18.6901C22.2252 18.6922 23.1825 18.7017 24.1393 18.6931C24.3562 18.6909 24.4635 18.7589 24.5769 18.9541C25.1838 19.9981 25.816 21.0271 26.4379 22.0621C26.4863 22.1425 26.5201 22.232 26.5748 22.3472C25.5953 22.3468 24.6556 22.3468 23.6778 22.3468ZM29.4599 18.5654C28.749 19.7565 28.0248 20.9394 27.3024 22.1232C27.2789 22.1614 27.2408 22.1911 27.1873 22.2483C26.8567 21.7087 26.5389 21.1931 26.2241 20.6762C25.8182 20.0093 25.4045 19.3471 25.0191 18.6681C24.9469 18.5408 24.9259 18.3061 24.9952 18.1882C25.6847 17.0161 26.3982 15.8581 27.1061 14.6966C27.1296 14.6584 27.1659 14.6283 27.2301 14.5565C27.5535 15.0884 27.861 15.5906 28.1643 16.095C28.592 16.8062 29.0215 17.517 29.4368 18.2351C29.4873 18.3228 29.5069 18.4862 29.4599 18.5654Z" fill="#03B04D"/>
<path d="M47.2759 27.5348V14.197H42.8984V11.3388H55.0602V14.197H50.6828V27.5348H47.2759Z" fill="#03B04E"/>
<path d="M60.25 27.5348V11.3389H69.5237V14.1515H63.6569V17.7128H69.1174V20.5254H63.6569V24.699H69.5237V27.5344L60.25 27.5348Z" fill="#03B04E"/>
<path d="M82.43 13.9699C79.5869 13.9699 78.3909 16.4196 78.3909 19.4821C78.3909 23.0889 79.7447 24.9035 82.43 24.9035C83.5584 24.9035 84.9344 24.6085 86.5363 24.0418V26.9224C85.2052 27.4895 83.7385 27.7617 82.1139 27.7617C77.195 27.7617 74.8711 24.5406 74.8711 19.4597C74.8711 16.012 76.2022 13.4032 78.4136 12.1106C79.5642 11.4299 80.8953 11.1125 82.43 11.1125C83.987 11.1125 85.5662 11.4983 87.1458 12.2469L86.0401 15.0372C85.0247 14.5599 83.7838 13.9699 82.43 13.9699Z" fill="#03B04E"/>
<path d="M102.466 27.5348V20.5482H96.0807V27.5348H92.6738V11.3389H96.0807V17.69H102.466V11.3389H105.873V27.5348H102.466Z" fill="#03B04E"/>
<path d="M112.643 27.5348V11.3389H121.916V14.1515H116.049V17.7128H121.51V20.5254H116.049V24.699H121.916V27.5344L112.643 27.5348Z" fill="#03B04E"/>
<path d="M130.784 27.5348V14.1971H126.406V11.3389H138.568V14.1971H134.191V27.5348H130.784Z" fill="#03B04E"/>
<path d="M151.88 20.4802C154.295 24.1322 155.874 26.4684 156.619 27.5348H152.828L148.992 21.3196H147.165V27.5348H143.758V11.3389H148.451C152.354 11.3389 154.881 12.5411 154.881 16.1931C154.881 18.3934 153.528 19.7544 151.88 20.4802ZM148.203 14.1515H147.165V18.5293H148.27C150.166 18.5293 151.429 18.0305 151.429 16.2839C151.429 14.5372 150.098 14.1515 148.203 14.1515Z" fill="#03B04E"/>
<path d="M175.977 19.4142C175.977 24.6086 173.381 27.7618 168.305 27.7618C163.228 27.7618 160.633 24.5863 160.633 19.3919C160.633 14.1747 163.228 11.0898 168.327 11.0898C173.427 11.0894 175.977 14.197 175.977 19.4142ZM164.221 19.4142C164.221 22.6581 165.304 24.8808 168.305 24.8808C171.035 24.8808 172.389 23.0662 172.389 19.4142C172.389 15.7622 171.035 13.9476 168.328 13.9476C165.326 13.9476 164.221 16.1703 164.221 19.4142Z" fill="#03B04E"/>
<path d="M191.952 27.5348L184.935 15.2858H184.845C184.98 17.4406 185.048 18.9834 185.048 19.9131V27.5348H182.002V11.3389H186.311L193.306 23.4743H193.374C193.261 21.3647 193.215 19.8903 193.215 19.0058V11.3389H196.284V27.5348H191.952Z" fill="#03B04E"/>
<path d="M142.067 34.2582L140.073 40.1467H138.719L136.734 34.2582H137.989L139.089 37.7632C139.171 38.0517 139.351 38.7694 139.4 39.0579C139.425 38.8106 139.532 38.3815 139.704 37.7632L140.812 34.2582H142.067Z" fill="#03B04E"/>
<path d="M148.213 40.1465V34.2581H151.585V35.2807H149.452V36.5754H151.437V37.5979H149.452V39.1154H151.585V40.1461L148.213 40.1465Z" fill="#03B04E"/>
<path d="M161.84 40.1467L159.289 35.6931H159.256C159.305 36.4766 159.33 37.0373 159.33 37.3757V40.1467H158.222V34.2582H159.789L162.332 38.6705H162.357C162.316 37.9034 162.3 37.3676 162.3 37.0459V34.2587H163.416V40.1467H161.84Z" fill="#03B04E"/>
<path d="M171.316 40.1465V35.2974H169.725V34.2581H174.147V35.2974H172.555V40.1465H171.316Z" fill="#03B04E"/>
<path d="M183.994 37.8538V34.2581H185.233V38.0683C185.233 39.0169 184.765 39.6434 184.101 39.9651C183.732 40.1384 183.305 40.2291 182.805 40.2291C181.361 40.2291 180.426 39.462 180.426 38.052V34.2585H181.664V37.8624C181.664 38.7529 181.968 39.182 182.837 39.182C183.682 39.1816 183.994 38.728 183.994 37.8538Z" fill="#03B04E"/>
<path d="M195.029 37.5817C195.907 38.9095 196.481 39.7588 196.752 40.1467H195.374L193.979 37.887H193.315V40.1467H192.076V34.2582H193.783C195.202 34.2582 196.121 34.6951 196.121 36.023C196.12 36.8232 195.627 37.3181 195.029 37.5817ZM193.692 35.2808H193.315V36.8726H193.716C194.405 36.8726 194.865 36.6912 194.865 36.0561C194.865 35.4214 194.381 35.2808 193.692 35.2808Z" fill="#03B04E"/>
<path d="M202.906 40.1467V34.2582H206.278V35.2808H204.145V36.5755H206.13V37.598H204.145V39.1155H206.278V40.1462L202.906 40.1467Z" fill="#03B04E"/>
<path d="M213.834 35.8088C213.834 36.0728 213.973 36.213 214.154 36.3364C214.26 36.4108 214.523 36.551 214.941 36.7488C215.491 37.0128 215.86 37.2764 216.066 37.5404C216.271 37.8044 216.369 38.1261 216.369 38.5135C216.369 39.6844 215.434 40.2288 214.212 40.2288C213.589 40.2288 213.039 40.1131 212.555 39.874V38.7113C212.949 38.8846 213.285 39.0084 213.556 39.0824C213.826 39.1568 214.08 39.1981 214.311 39.1981C214.803 39.1981 215.155 39.0329 215.155 38.5711C215.155 38.2908 214.967 38.1342 214.77 38.0022C214.647 37.9197 214.401 37.7877 214.015 37.6066C213.663 37.4333 213.392 37.2686 213.211 37.1117C212.883 36.8232 212.621 36.4439 212.621 35.8501C212.621 34.7368 213.458 34.1761 214.606 34.1761C215.311 34.1761 215.811 34.3494 216.345 34.5885L215.943 35.5615C215.631 35.4377 215.369 35.347 215.163 35.2975C214.958 35.2481 214.761 35.215 214.565 35.215C214.146 35.215 213.834 35.4128 213.834 35.8088Z" fill="#03B04E"/>
</svg>
