<svg width="60" height="60" viewBox="0 0 60 60" fill="none" xmlns="http://www.w3.org/2000/svg">
<path d="M33.8193 39.4983H32.024C31.5669 39.4983 31.1929 39.122 31.1929 38.6621C31.1929 38.2023 31.5669 37.826 32.024 37.826H33.8193C35.1075 37.826 36.1548 36.7725 36.1548 35.4849V9.01337C36.1548 7.72575 35.1075 6.67224 33.8193 6.67224H21.4436C20.1636 6.67224 19.1164 7.72575 19.1164 9.01337V35.4849C19.1164 36.7725 20.1636 37.826 21.4436 37.826H24.8513C25.3084 37.826 25.6824 38.2023 25.6824 38.6621C25.6824 39.122 25.3084 39.4983 24.8513 39.4983H21.4436C19.2411 39.4983 17.4541 37.7006 17.4541 35.4849V9.01337C17.4541 6.79766 19.2411 5 21.4436 5H33.8193C36.0218 5 37.817 6.79766 37.817 9.01337V35.4849C37.817 37.7006 36.0218 39.4983 33.8193 39.4983Z" fill="#073500"/>
<path d="M36.986 55H24.0784C23.7543 55 23.4634 54.8161 23.3221 54.5151C23.1891 54.2224 23.2306 53.8713 23.4384 53.6288C27.3032 48.9883 25.3999 42.7593 25.3833 42.6924C25.0924 42.0068 22.3081 35.2844 23.588 32.1907C23.8872 31.48 24.3859 30.9616 25.0425 30.7024C27.5276 29.7158 28.7577 32.3997 29.7385 34.5569C30.42 36.0536 31.193 37.7509 32.1072 37.8345C32.5643 37.8763 32.9051 38.2777 32.8636 38.7375C32.822 39.1974 32.4147 39.5569 31.9659 39.4984C30.0875 39.3395 29.14 37.266 28.2258 35.2509C27.137 32.8513 26.5386 31.8981 25.6576 32.2492C25.508 32.3078 25.2919 32.4332 25.1256 32.8262C24.361 34.674 25.8404 39.4984 26.9458 42.0987C27.0539 42.4332 28.8408 48.2275 25.7074 53.3194H36.5206L40.4851 46.48C40.8425 45.8696 41.0835 45.2007 41.1916 44.49L42.8954 33.863C43.0616 32.8094 42.937 31.7309 42.5297 30.7359L40.2856 25.2927C39.8119 24.1389 38.9641 23.1606 37.9003 22.5335L36.5704 21.7476C36.1715 21.5135 36.0468 21.0035 36.2712 20.6021C36.5039 20.2008 37.0109 20.067 37.4099 20.3011L38.7397 21.0871C40.1194 21.8981 41.2082 23.169 41.8232 24.6489L44.0673 30.0921C44.5909 31.363 44.7572 32.7593 44.5328 34.1222L42.8289 44.7492C42.6793 45.6606 42.3801 46.5218 41.9147 47.3077L37.7091 54.5653C37.5595 54.8412 37.2852 55 36.986 55Z" fill="#073500"/>
<path d="M24.0783 34.7573H18.2852C17.8281 34.7573 17.4541 34.3811 17.4541 33.9212C17.4541 33.4613 17.8281 33.0851 18.2852 33.0851H24.07C24.5271 33.0851 24.9011 33.4613 24.9011 33.9212C24.9011 34.3811 24.5354 34.7573 24.0783 34.7573Z" fill="#073500"/>
<path d="M36.986 34.7573H28.5167C28.0596 34.7573 27.6855 34.3811 27.6855 33.9212C27.6855 33.4613 28.0596 33.0851 28.5167 33.0851H36.986C37.4431 33.0851 37.8172 33.4613 37.8172 33.9212C37.8172 34.3811 37.4431 34.7573 36.986 34.7573Z" fill="#073500"/>
<path d="M36.9859 10.602H18.2852C17.8281 10.602 17.4541 10.2258 17.4541 9.7659C17.4541 9.30603 17.8281 8.92978 18.2852 8.92978H36.9859C37.443 8.92978 37.817 9.30603 37.817 9.7659C37.817 10.2258 37.443 10.602 36.9859 10.602Z" fill="#073500"/>
<path d="M38.473 52.4411H25.6568C25.1997 52.4411 24.8257 52.0648 24.8257 51.605C24.8257 51.1451 25.1997 50.7689 25.6568 50.7689H38.4647C38.9218 50.7689 39.2958 51.1451 39.2958 51.605C39.2958 52.0648 38.9301 52.4411 38.473 52.4411Z" fill="#073500"/>
<path d="M27.5931 26.2875C27.4685 26.2875 27.3521 26.2875 27.2358 26.2792C25.2576 26.1537 23.9528 25.0919 23.8281 23.5116C23.7948 23.0517 24.1273 22.6504 24.5927 22.6086C25.0415 22.5835 25.4488 22.918 25.4904 23.3778C25.5735 24.423 26.9365 24.5902 27.3521 24.6153C28.5988 24.6905 29.671 24.2056 29.779 23.7374C29.9453 22.9681 30.0533 22.4581 26.3298 21.4547C24.252 20.8945 23.6785 19.4648 23.8281 18.3193C24.0359 16.714 25.5818 15.4096 27.2607 15.4096C30.2112 15.4096 31.0673 17.2992 31.1006 17.3745C31.2834 17.8009 31.0922 18.2942 30.6767 18.4782C30.2611 18.6621 29.779 18.4782 29.5879 18.0685C29.5546 18.0016 29.0476 17.0818 27.2607 17.0818C26.3215 17.0818 25.5652 17.8511 25.4737 18.5451C25.374 19.3059 26.122 19.6738 26.762 19.8494C30.311 20.8109 31.9151 21.6889 31.3998 24.0969C31.0756 25.5517 29.2637 26.2875 27.5931 26.2875Z" fill="#073500"/>
<path d="M27.5681 28.52C27.1109 28.52 26.7368 28.1438 26.7368 27.6839V14.7575C26.7368 14.2977 27.1109 13.9214 27.5681 13.9214C28.0253 13.9214 28.3994 14.2977 28.3994 14.7575V27.6756C28.3994 28.1438 28.0253 28.52 27.5681 28.52Z" fill="#073500"/>
<path d="M46.7929 24.4232C46.5187 24.4232 46.261 24.2894 46.1031 24.0553L41.3905 17.0737C41.216 16.8145 41.1994 16.4884 41.3407 16.2125C41.482 15.9366 41.7645 15.7694 42.0721 15.7694H43.7925V10.3346C43.7925 9.87473 44.1665 9.49847 44.6237 9.49847C45.0808 9.49847 45.4548 9.87473 45.4548 10.3346V16.6055C45.4548 17.0653 45.0808 17.4416 44.6237 17.4416H43.6429L46.7929 22.0988L49.943 17.4416H48.9622C48.5051 17.4416 48.1311 17.0653 48.1311 16.6055V10.3346C48.1311 9.87473 48.5051 9.49847 48.9622 9.49847C49.4193 9.49847 49.7934 9.87473 49.7934 10.3346V15.7694H51.5055C51.813 15.7694 52.0956 15.9449 52.2369 16.2125C52.3782 16.4801 52.3616 16.8145 52.187 17.0737L47.4745 24.0553C47.3332 24.2811 47.0755 24.4232 46.7929 24.4232Z" fill="#073500"/>
<path d="M11.5034 51.8894C11.2291 51.8894 10.9715 51.7556 10.8135 51.5215L6.10098 44.5483C5.92644 44.2891 5.90982 43.963 6.05111 43.6871C6.19241 43.4111 6.475 43.2439 6.78252 43.2439H8.50298V37.8091C8.50298 37.3493 8.87699 36.973 9.33412 36.973C9.79125 36.973 10.1653 37.3493 10.1653 37.8091V44.08C10.1653 44.5399 9.79125 44.9162 9.33412 44.9162H8.36168L11.5117 49.5733L14.6617 44.9162H13.681C13.2239 44.9162 12.8498 44.5399 12.8498 44.08V37.8091C12.8498 37.3493 13.2239 36.973 13.681 36.973C14.1381 36.973 14.5121 37.3493 14.5121 37.8091V43.2439H16.2326C16.5401 43.2439 16.8227 43.4195 16.964 43.6871C17.1053 43.9546 17.0887 44.2891 16.9141 44.5483L12.2016 51.5299C12.0353 51.7556 11.7777 51.8894 11.5034 51.8894Z" fill="#073500"/>
<path d="M10.5471 27.1821C10.2728 27.1821 10.0152 27.0483 9.85725 26.8142L5.14468 19.8326C4.97014 19.5734 4.95352 19.2473 5.09482 18.9714C5.23611 18.6955 5.5187 18.5282 5.82622 18.5282H7.54668V13.0935C7.54668 12.6336 7.92069 12.2574 8.37782 12.2574C8.83495 12.2574 9.20896 12.6336 9.20896 13.0935V19.3644C9.20896 19.8242 8.83495 20.2005 8.37782 20.2005H7.39707L10.5471 24.8577L13.6971 20.2005H12.7164C12.2592 20.2005 11.8852 19.8242 11.8852 19.3644V13.0935C11.8852 12.6336 12.2592 12.2574 12.7164 12.2574C13.1735 12.2574 13.5475 12.6336 13.5475 13.0935V18.5282H15.268C15.5755 18.5282 15.8581 18.7038 15.9994 18.9714C16.1407 19.2389 16.124 19.5734 15.9495 19.8326L11.2369 26.8142C11.079 27.0399 10.8214 27.1821 10.5471 27.1821Z" fill="#073500"/>
<path d="M49.461 51.5635C49.1868 51.5635 48.9291 51.4297 48.7712 51.1956L44.0586 44.214C43.8841 43.9548 43.8675 43.6287 44.0088 43.3528C44.15 43.0768 44.4326 42.9096 44.7402 42.9096H46.4523V37.4749C46.4523 37.015 46.8263 36.6387 47.2835 36.6387C47.7406 36.6387 48.1146 37.015 48.1146 37.4749V43.7457C48.1146 44.2056 47.7406 44.5819 47.2835 44.5819H46.3027L49.4527 49.239L52.6027 44.5819H51.622C51.1649 44.5819 50.7909 44.2056 50.7909 43.7457V37.4749C50.7909 37.015 51.1649 36.6387 51.622 36.6387C52.0791 36.6387 52.4531 37.015 52.4531 37.4749V42.9096H54.1736C54.4811 42.9096 54.7637 43.0852 54.905 43.3528C55.0463 43.6203 55.0297 43.9548 54.8551 44.214L50.1426 51.1956C49.993 51.4297 49.7353 51.5635 49.461 51.5635Z" fill="#073500"/>
</svg>
