<svg width="50" height="46" viewBox="0 0 50 46" fill="none" xmlns="http://www.w3.org/2000/svg">
<path d="M27.6089 25.538C25.8603 25.5372 24.1423 26.0055 22.6273 26.8957C22.541 26.9466 22.4653 27.0143 22.4046 27.095C22.3438 27.1757 22.2993 27.2678 22.2735 27.3661C22.2477 27.4643 22.2412 27.5668 22.2542 27.6676C22.2673 27.7684 22.2997 27.8657 22.3496 27.9537C22.3995 28.0418 22.4659 28.119 22.545 28.1809C22.6242 28.2427 22.7145 28.2881 22.8109 28.3144C22.9073 28.3407 23.0077 28.3474 23.1066 28.3341C23.2055 28.3208 23.3009 28.2878 23.3873 28.2369C25.2477 27.1402 27.4477 26.8065 29.5407 27.3033C31.6338 27.8002 33.4629 29.0905 34.6568 30.9123C35.8507 32.7341 36.3199 34.9508 35.9691 37.1125C35.6184 39.2741 34.474 41.2186 32.7682 42.5513C31.0625 43.8841 28.9232 44.505 26.7848 44.2882C24.6463 44.0714 22.6689 43.033 21.254 41.3839C19.8392 39.7348 19.0928 37.5985 19.1665 35.4088C19.2402 33.219 20.1284 31.1399 21.6508 29.5936C21.7235 29.5224 21.7815 29.4371 21.8214 29.3428C21.8614 29.2485 21.8826 29.1471 21.8837 29.0443C21.8848 28.9416 21.8658 28.8397 21.8279 28.7445C21.7899 28.6493 21.7338 28.5628 21.6627 28.49C21.5916 28.4172 21.507 28.3595 21.4139 28.3204C21.3207 28.2813 21.2208 28.2615 21.1201 28.2621C21.0193 28.2627 20.9197 28.2838 20.827 28.3241C20.7343 28.3645 20.6504 28.4232 20.5802 28.4969C18.9454 30.1555 17.9255 32.3409 17.6945 34.6805C17.4635 37.0201 18.0357 39.369 19.3135 41.3265C20.5912 43.2841 22.4955 44.7291 24.7014 45.4151C26.9074 46.1012 29.2785 45.9858 31.4103 45.0887C33.5422 44.1915 35.3028 42.5682 36.3919 40.4955C37.481 38.4228 37.8312 36.029 37.3827 33.7225C36.9342 31.416 35.7148 29.3395 33.9325 27.8472C32.1501 26.3549 29.9153 25.5391 27.6089 25.539V25.538Z" fill="#073500"/>
<path d="M28.4331 38.756H26.5277C26.3803 38.7563 26.2344 38.727 26.0982 38.6697C25.962 38.6124 25.8382 38.5284 25.7339 38.4223C25.6296 38.3162 25.5468 38.1903 25.4903 38.0516C25.4338 37.9129 25.4046 37.7641 25.4045 37.6139C25.4045 37.4087 25.3245 37.2119 25.1822 37.0668C25.0398 36.9217 24.8468 36.8402 24.6455 36.8402C24.4442 36.8402 24.2512 36.9217 24.1089 37.0668C23.9666 37.2119 23.8866 37.4087 23.8866 37.6139C23.8874 38.327 24.1656 39.0107 24.6601 39.5149C25.1547 40.0191 25.8252 40.3027 26.5246 40.3036H26.7199V41.7871C26.7199 41.9924 26.7999 42.1892 26.9422 42.3343C27.0845 42.4794 27.2776 42.5609 27.4789 42.5609C27.6801 42.5609 27.8732 42.4794 28.0155 42.3343C28.1578 42.1892 28.2378 41.9924 28.2378 41.7871V40.3036H28.4311C29.1307 40.3036 29.8017 40.0202 30.2964 39.5158C30.7912 39.0114 31.0691 38.3273 31.0691 37.6139C31.0691 36.9006 30.7912 36.2165 30.2964 35.7121C29.8017 35.2077 29.1307 34.9243 28.4311 34.9243H26.5277C26.2363 34.9154 25.9597 34.7911 25.7567 34.5778C25.5537 34.3645 25.4402 34.079 25.4402 33.7817C25.4402 33.4845 25.5537 33.199 25.7567 32.9857C25.9597 32.7724 26.2363 32.6481 26.5277 32.6391H28.4331C28.7301 32.6394 29.0149 32.7598 29.2249 32.9739C29.4349 33.1881 29.553 33.4784 29.5533 33.7812C29.5533 33.9864 29.6332 34.1832 29.7755 34.3283C29.9179 34.4735 30.1109 34.555 30.3122 34.555C30.5135 34.555 30.7065 34.4735 30.8488 34.3283C30.9912 34.1832 31.0711 33.9864 31.0711 33.7812C31.0703 33.0681 30.7921 32.3845 30.2976 31.8803C29.803 31.376 29.1325 31.0924 28.4331 31.0916H28.2378V29.607C28.2378 29.4018 28.1578 29.205 28.0155 29.0599C27.8732 28.9147 27.6801 28.8332 27.4789 28.8332C27.2776 28.8332 27.0845 28.9147 26.9422 29.0599C26.7999 29.205 26.7199 29.4018 26.7199 29.607V31.0916H26.5277C25.8368 31.1054 25.1789 31.3949 24.6951 31.8979C24.2113 32.4009 23.9403 33.0772 23.9403 33.7817C23.9403 34.4862 24.2113 35.1626 24.6951 35.6656C25.1789 36.1686 25.8368 36.4581 26.5277 36.4719H28.4331C28.7302 36.4719 29.0151 36.5922 29.2252 36.8064C29.4352 37.0206 29.5533 37.311 29.5533 37.6139C29.5533 37.9168 29.4352 38.2073 29.2252 38.4215C29.0151 38.6357 28.7302 38.756 28.4331 38.756Z" fill="#073500"/>
<path d="M45.66 14.3761C45.4683 14.3282 45.2658 14.3583 45.0956 14.4601C44.9253 14.5618 44.8006 14.7272 44.7479 14.9212C44.6952 15.1152 44.7188 15.3224 44.8135 15.499C44.9082 15.6755 45.0667 15.8075 45.2553 15.8669C47.3084 16.4488 47.7709 17.1049 47.7709 17.2824C47.7709 17.9282 44.8009 19.4427 39.0432 19.4427C33.2854 19.4427 30.3145 17.9282 30.3145 17.2824C30.3145 16.6365 33.2834 15.122 39.0432 15.122C40.4053 15.117 41.766 15.2146 43.1141 15.414C43.3104 15.4378 43.5081 15.3827 43.6652 15.2603C43.8223 15.138 43.9264 14.958 43.9555 14.7587C43.9846 14.5593 43.9364 14.3562 43.821 14.1925C43.7057 14.0289 43.5323 13.9174 43.3377 13.8819C41.9155 13.6721 40.4802 13.5686 39.0432 13.5724C34.1081 13.5724 28.7966 14.7331 28.7966 17.2803V23.3002C28.7966 25.8475 34.1081 27.0081 39.0432 27.0081C42.3602 27.0081 45.8412 26.4809 47.7709 25.3626V26.3097C47.7709 26.9555 44.8009 28.47 39.0432 28.47C38.3824 28.47 37.7388 28.4494 37.1206 28.4081C36.9197 28.3962 36.7223 28.4652 36.5708 28.6003C36.4194 28.7354 36.3261 28.9258 36.311 29.1303C36.304 29.232 36.3168 29.3341 36.3487 29.4307C36.3806 29.5274 36.4309 29.6166 36.4967 29.6933C36.5625 29.77 36.6426 29.8327 36.7323 29.8778C36.822 29.9228 36.9196 29.9493 37.0194 29.9557C37.6721 29.999 38.349 30.0217 39.0432 30.0217C42.3602 30.0217 45.8412 29.4945 47.7709 28.371V29.3181C47.7709 29.9639 44.8009 31.4846 39.0432 31.4846C39.0432 31.4846 38.7265 31.4908 38.5858 31.4846C38.3868 31.486 38.1956 31.5641 38.0507 31.7032C37.9058 31.8424 37.8179 32.0322 37.8046 32.2347C37.7989 32.44 37.8732 32.6392 38.0113 32.7886C38.1494 32.9381 38.34 33.0257 38.5413 33.0322H39.0472C42.3643 33.0322 45.8452 32.504 47.7749 31.3815V32.3286C47.7749 32.9744 44.805 34.4889 39.0472 34.4889C38.846 34.4889 38.6529 34.5705 38.5106 34.7156C38.3683 34.8607 38.2883 35.0575 38.2883 35.2627C38.2883 35.4679 38.3683 35.6647 38.5106 35.8098C38.6529 35.9549 38.846 36.0365 39.0472 36.0365C42.3643 36.0365 45.8452 35.5082 47.7749 34.3909V35.4133C47.7749 36.0592 44.805 37.5737 39.0472 37.5737H38.775C38.5771 37.5824 38.3893 37.6654 38.2477 37.8067C38.1062 37.948 38.0208 38.1376 38.008 38.3392C38.0061 38.5443 38.0841 38.7419 38.2249 38.8885C38.3656 39.0351 38.5576 39.1188 38.7588 39.1212H39.0472C43.9742 39.1243 49.2857 37.9637 49.2857 35.4164V17.2824C49.2857 16.4261 48.6563 15.2273 45.66 14.3761ZM39.0401 20.9903C42.3572 20.9903 45.8381 20.4631 47.7678 19.3447V20.2918C47.7678 20.9377 44.7979 22.4584 39.0401 22.4584C33.2824 22.4584 30.3115 20.9428 30.3115 20.2918V19.3447C32.2412 20.4631 35.7262 20.9903 39.0401 20.9903ZM39.0401 25.4627C33.2804 25.4627 30.3115 23.9481 30.3115 23.3023V22.3552C32.2412 23.4736 35.7211 24.0059 39.0401 24.0059C42.3592 24.0059 45.8381 23.4787 47.7678 22.3552V23.3023C47.7678 23.9481 44.7979 25.4627 39.0401 25.4627Z" fill="#073500"/>
<path d="M16.7023 39.8C16.4352 39.8103 16.166 39.8165 15.8928 39.8165C7.84817 39.8165 2.23209 35.111 2.23209 28.374C2.23209 22.8803 5.87495 14.7557 11.3079 11.4182C11.3817 11.3718 11.4435 11.315 11.5102 11.2634H17.7142C17.9155 11.2634 18.1086 11.1819 18.2509 11.0368C18.3932 10.8917 18.4732 10.6949 18.4732 10.4897C18.4732 10.2844 18.3932 10.0876 18.2509 9.94253C18.1086 9.79742 17.9155 9.71589 17.7142 9.71589H12.4675C12.5711 9.13429 12.4531 8.53432 12.1376 8.03837C9.57245 3.98691 9.07358 2.16392 9.16668 1.6914C9.17645 1.69723 9.18779 1.69976 9.19906 1.69862C10.3387 1.70672 11.4713 1.88254 12.5616 2.22066C13.6165 2.54757 14.7114 2.72122 15.8139 2.7365C17.0603 2.70533 18.2982 2.51893 19.5003 2.18145C20.4528 1.91402 21.4309 1.75214 22.4176 1.69862C22.3903 2.28153 21.8236 4.00342 19.8635 7.41419H14.0714C13.8701 7.41419 13.6771 7.49571 13.5347 7.64082C13.3924 7.78593 13.3125 7.98274 13.3125 8.18796C13.3125 8.39318 13.3924 8.58999 13.5347 8.7351C13.6771 8.88021 13.8701 8.96173 14.0714 8.96173H19.1936C19.1562 9.25012 19.1727 9.54312 19.2422 9.82525C19.3235 10.1458 19.4668 10.4465 19.6637 10.7098C19.8606 10.973 20.1071 11.1935 20.3887 11.3583C23.1206 13.1724 25.336 15.6877 26.8123 18.6514C26.8585 18.7433 26.9222 18.8248 26.9998 18.8912C27.0773 18.9576 27.1671 19.0075 27.2639 19.0379C27.3606 19.0684 27.4624 19.0788 27.5632 19.0685C27.6639 19.0583 27.7617 19.0275 27.8506 18.9782C27.9396 18.9288 28.0179 18.8618 28.0811 18.7811C28.1442 18.7004 28.1909 18.6076 28.2183 18.5082C28.2457 18.4088 28.2534 18.3048 28.2408 18.2024C28.2282 18.0999 28.1956 18.0011 28.145 17.9116C26.5383 14.7029 24.1299 11.983 21.1628 10.0264C21.054 9.96478 20.9584 9.88167 20.8814 9.78195C20.8045 9.68223 20.7477 9.56789 20.7145 9.44559C20.6887 9.34289 20.6835 9.23591 20.6993 9.13111C20.7151 9.0263 20.7516 8.92587 20.8066 8.83586C24.6154 2.37541 24.0002 1.26634 23.7411 0.788671C23.6258 0.585167 23.4581 0.417593 23.2563 0.303977C23.0545 0.190362 22.8261 0.135005 22.5957 0.143864C21.4322 0.177982 20.2771 0.35499 19.1552 0.671058C18.0668 0.980698 16.9454 1.15392 15.8159 1.1869C14.8445 1.16931 13.8804 1.01197 12.9522 0.719548C11.7346 0.348846 10.4717 0.155723 9.20108 0.145927C8.92964 0.128002 8.65876 0.188722 8.41972 0.321074C8.18068 0.453427 7.98324 0.652014 7.85019 0.893904C7.59519 1.37158 6.91721 2.64056 10.8647 8.87403C10.924 8.96383 10.9645 9.0652 10.9835 9.17175C11.0024 9.2783 10.9995 9.3877 10.975 9.49305C10.9436 9.61868 10.8876 9.73655 10.8104 9.83956C10.7332 9.94256 10.6363 10.0286 10.5257 10.0925C4.66066 13.7003 0.714233 22.4583 0.714233 28.374C0.714233 35.9002 7.09936 41.3682 15.8928 41.3682C16.1842 41.3682 16.4736 41.362 16.761 41.3496C16.8607 41.3456 16.9586 41.3216 17.0492 41.2791C17.1398 41.2365 17.2212 41.1761 17.2889 41.1015C17.3566 41.0268 17.4092 40.9392 17.4438 40.8438C17.4783 40.7484 17.494 40.647 17.4901 40.5454C17.4862 40.4438 17.4627 40.344 17.4209 40.2516C17.3791 40.1593 17.32 40.0762 17.2467 40.0072C17.1735 39.9382 17.0876 39.8845 16.994 39.8493C16.9004 39.8141 16.801 39.7981 16.7013 39.8021L16.7023 39.8Z" fill="#073500"/>
</svg>
