<svg width="60" height="60" viewBox="0 0 60 60" fill="none" xmlns="http://www.w3.org/2000/svg">
<path fill-rule="evenodd" clip-rule="evenodd" d="M39.371 19.8985C29.6586 28.8961 19.7959 33.4418 10.8303 36.2805C10.4423 36.4033 10.0277 36.188 9.90482 35.8001C9.78196 35.4121 9.99726 34.9974 10.3852 34.8746C19.1891 32.0871 28.8773 27.6239 38.4142 18.7747C38.2254 17.5796 38.0057 14.4268 40.2459 11.6802C42.0556 9.4613 45.5126 7.45826 52.0846 7.1437C52.3536 7.1308 52.6081 7.26564 52.7488 7.49532C52.8893 7.72499 52.8935 8.0131 52.7596 8.24674C52.7596 8.24674 50.1785 12.7366 49.5155 15.026C48.89 17.1858 47.8197 18.5116 46.6137 19.3137C43.9455 21.0882 40.5196 20.2487 39.371 19.8985ZM40.5614 18.6969C41.8448 19.0003 44.0246 19.2646 45.7971 18.0858C46.767 17.4407 47.5959 16.3529 48.099 14.6158C48.5731 12.9789 49.9772 10.2642 50.8195 8.70803C45.719 9.1672 42.9007 10.7582 41.3887 12.6122C40.0216 14.2884 39.7556 16.146 39.7713 17.4029C40.9199 16.2613 42.8231 14.4872 44.782 13.1685C45.1195 12.9412 45.5782 13.0308 45.8054 13.3684C46.0326 13.7059 45.9431 14.1645 45.6055 14.3918C43.5801 15.7552 41.6182 17.6283 40.5614 18.6969ZM49.9926 49.1677H52.1198C52.527 49.1677 52.8571 49.4979 52.8571 49.9051V52.1198C52.8571 52.527 52.527 52.8571 52.1198 52.8571H7.88021C7.47302 52.8571 7.14288 52.527 7.14288 52.1198V49.9051C7.14288 49.4979 7.47302 49.1677 7.88021 49.1677H10.0074V39.2762C10.0074 38.869 10.3375 38.5389 10.7447 38.5389H16.6053C17.0125 38.5389 17.3426 38.869 17.3426 39.2762V49.1677H20.8916V33.3829C20.8916 32.9756 21.2217 32.6455 21.629 32.6455H27.4894C27.8967 32.6455 28.2267 32.9756 28.2267 33.3829V49.1677H31.7733V27.2315C31.7733 26.8243 32.1033 26.4942 32.5106 26.4942H38.3737C38.7808 26.4942 39.111 26.8243 39.111 27.2315V49.1677H42.6574V21.6972C42.6574 21.29 42.9876 20.9598 43.3948 20.9598H49.2553C49.6625 20.9598 49.9926 21.29 49.9926 21.6972V49.1677ZM11.4821 49.1677H15.8679V40.0135H11.4821V49.1677ZM22.3663 49.1677H26.7521V34.1202H22.3663V49.1677ZM33.2479 49.1677H37.6363C37.6363 45.3463 37.6363 27.9689 37.6363 27.9689H33.2479V49.1677ZM44.1321 49.1677H48.518V22.4345H44.1321V49.1677ZM8.61754 51.3825H51.3825V50.6424H8.61754V51.3825ZM27.4156 23.0946C27.7677 23.0546 28.1076 23.274 28.2075 23.626C28.3186 24.0175 28.091 24.4255 27.6995 24.5366L25.7891 25.0788C25.5737 25.14 25.342 25.0999 25.1597 24.9699C24.9773 24.8398 24.864 24.6339 24.8515 24.4103L24.7417 22.4276C24.7192 22.0212 25.0307 21.6731 25.4371 21.6505C25.8093 21.6299 26.1327 21.8897 26.2017 22.2459C26.9365 20.9329 27.3548 19.4249 27.3548 17.8215C27.3548 12.7384 23.1536 8.61753 17.9862 8.61753C17.4077 8.61753 16.8413 8.66905 16.2916 8.76785C15.8911 8.83983 15.5075 8.5731 15.4355 8.17264C15.3635 7.77209 15.6303 7.38849 16.0307 7.31651C16.6651 7.2025 17.3186 7.14287 17.9862 7.14287C23.974 7.14287 28.8294 11.9312 28.8294 17.8215C28.8294 19.7384 28.3155 21.5383 27.4156 23.0946ZM8.57597 12.5152C8.20952 12.5709 7.85155 12.3428 7.75367 11.9764C7.6486 11.5832 7.88251 11.1788 8.27569 11.0737L10.1942 10.5611C10.4106 10.5033 10.6415 10.5469 10.8219 10.6798C11.0021 10.8126 11.1124 11.0202 11.1213 11.244L11.2006 13.2283C11.2168 13.6349 10.8998 13.9782 10.4932 13.9945C10.1382 14.0087 9.83136 13.7688 9.7485 13.4369C9.0274 14.7405 8.61754 16.2343 8.61754 17.8215C8.61754 22.9047 12.8188 27.0254 17.9862 27.0254C18.5646 27.0254 19.131 26.9739 19.6808 26.8751C20.0812 26.8031 20.4649 27.0699 20.5369 27.4704C20.6089 27.8709 20.342 28.2546 19.9416 28.3265C19.3072 28.4405 18.6538 28.5001 17.9862 28.5001C11.9983 28.5001 7.14288 23.7118 7.14288 17.8215C7.14288 15.8909 7.66417 14.0791 8.57597 12.5152ZM17.9862 25.7892C13.5978 25.7892 10.0185 22.2099 10.0185 17.8215C10.0185 13.4331 13.5978 9.85375 17.9862 9.85375C22.3746 9.85375 25.9539 13.4331 25.9539 17.8215C25.9539 22.2099 22.3746 25.7892 17.9862 25.7892ZM17.9862 24.3146C21.5623 24.3146 24.4793 21.3977 24.4793 17.8215C24.4793 14.2453 21.5623 11.3284 17.9862 11.3284C14.41 11.3284 11.4931 14.2453 11.4931 17.8215C11.4931 21.3977 14.41 24.3146 17.9862 24.3146ZM17.2489 13.6201V13.2476C17.2489 12.8406 17.5792 12.5102 17.9862 12.5102C18.3931 12.5102 18.7235 12.8406 18.7235 13.2476V13.6117C19.5878 13.805 20.3845 14.3605 20.7961 15.3409C20.9535 15.7162 20.7767 16.1487 20.4015 16.3062C20.0262 16.4636 19.5938 16.2868 19.4362 15.9116C19.0639 15.0243 18.0686 14.8466 17.3547 15.1275C16.9502 15.2866 16.6221 15.61 16.6457 16.0848L16.6458 16.0866C16.6632 16.4542 16.9046 16.6619 17.1887 16.8007C17.4728 16.9395 17.8017 17.0167 18.1119 17.0672L18.1132 17.0674C19.4149 17.2817 20.8383 17.8787 21.0244 19.426C21.2068 20.9325 19.9992 21.8085 18.7235 22.0458V22.3979C18.7235 22.8048 18.3931 23.1352 17.9862 23.1352C17.5792 23.1352 17.2489 22.8048 17.2489 22.3979V22.035C16.1684 21.81 15.2387 21.0968 14.9523 19.946C14.854 19.5512 15.0948 19.1508 15.4897 19.0525C15.8846 18.9542 16.285 19.1949 16.3832 19.5899C16.5696 20.3384 17.3301 20.6549 18.062 20.6368H18.0637C18.4602 20.6278 18.9019 20.5304 19.2269 20.3063C19.4484 20.1536 19.5995 19.9251 19.5605 19.6031L19.5604 19.6023C19.5098 19.1814 19.2207 18.9523 18.8876 18.8009C18.5706 18.657 18.2106 18.578 17.8749 18.5227C16.5996 18.3149 15.2443 17.6685 15.1728 16.1563C15.116 14.9972 15.8269 14.1438 16.8149 13.7551C16.9548 13.7001 17.1 13.655 17.2489 13.6201Z" fill="#DEEADF"/>
</svg>
