<svg width="43" height="46" viewBox="0 0 43 46" fill="none" xmlns="http://www.w3.org/2000/svg">
<path d="M30.7632 31.8961C30.041 31.6993 29.2887 31.7993 28.6446 32.1774L22.0027 36.0771C21.9392 35.7574 21.8254 35.446 21.661 35.1538C21.2601 34.4409 20.6132 33.9304 19.8396 33.7163L12.0761 31.5673C12.0455 31.5587 12.0143 31.5524 11.9829 31.5481C10.7606 31.3838 9.64534 31.6866 8.66721 32.4484L6.81152 33.8936L6.79635 33.8359C6.71574 33.5297 6.52231 33.2737 6.25173 33.1148C5.98105 32.9558 5.66621 32.9137 5.36548 32.9956L3.51821 33.499C3.21721 33.581 2.96552 33.7778 2.80925 34.053C2.65307 34.3282 2.61157 34.6483 2.69218 34.9543L5.37018 45.1191C5.45088 45.4252 5.64431 45.6812 5.91489 45.8401C6.09528 45.946 6.29527 46 6.49766 46C6.59894 46 6.70075 45.9866 6.80105 45.9591L8.64832 45.4558C9.27046 45.2863 9.64108 44.6335 9.47444 44.0005L9.40437 43.7346C10.4278 42.9828 11.3461 42.7842 12.4926 43.0515L16.9396 44.0883C17.3392 44.1815 17.7289 44.228 18.1077 44.228C18.8949 44.228 19.6346 44.027 20.3169 43.6263L31.4374 37.0969C32.7708 36.3139 33.2294 34.5734 32.4596 33.2169C32.0879 32.5621 31.4854 32.093 30.7632 31.8961ZM6.67601 44.4993L4.12776 34.827L5.49061 34.4556L8.03895 44.1278L6.67601 44.4993ZM30.7279 35.8473L19.6075 42.3768C18.9075 42.7878 18.1386 42.8876 17.2567 42.6819L12.8099 41.6451C11.426 41.3224 10.2245 41.5127 9.01681 42.2637L7.20901 35.4019L9.53013 33.5941C10.1962 33.0754 10.9231 32.8722 11.7516 32.973L19.4671 35.1087C19.8749 35.2216 20.2167 35.4921 20.4295 35.8703C20.6423 36.2486 20.6983 36.6853 20.5873 37.1001C20.3562 37.9633 19.4777 38.4742 18.6292 38.2394L14.4821 37.0914C14.104 36.9868 13.7142 37.2136 13.6112 37.5981C13.5083 37.9826 13.7313 38.3791 14.1095 38.4837L18.2565 39.6317C18.5206 39.7049 18.786 39.7397 19.0474 39.7397C20.2518 39.7396 21.3672 38.9986 21.8349 37.842L29.3542 33.4271C29.6698 33.2417 30.0398 33.193 30.396 33.29C30.7521 33.387 31.0484 33.6173 31.2308 33.9384C31.6095 34.6059 31.3839 35.4621 30.7279 35.8473ZM40.5505 22.5351C39.961 22.5351 39.4197 22.7479 38.9967 23.102L37.737 22.2456V18.7338H38.5016C38.8934 18.7338 39.2111 18.4107 39.2111 18.0122V15.1269C39.2111 14.7284 38.8934 14.4053 38.5016 14.4053H36.2249C35.8555 12.8372 35.25 11.3513 34.4192 9.97454L36.0298 8.3365C36.3069 8.05464 36.3069 7.59789 36.0298 7.31603L32.0175 3.2354C31.7405 2.95381 31.2913 2.95372 31.0142 3.2354L29.4034 4.87354C28.049 4.02822 26.5882 3.41237 25.0467 3.03688V0.721564C25.0467 0.32308 24.729 0 24.3372 0H18.6629C18.2711 0 17.9534 0.32308 17.9534 0.721564V3.03688C16.4112 3.41264 14.9503 4.02849 13.5966 4.87345L11.9859 3.2354C11.7089 2.95372 11.2596 2.95372 10.9826 3.2354L6.97018 7.31594C6.83706 7.45132 6.7623 7.63478 6.7623 7.82618C6.7623 8.01757 6.83706 8.20103 6.97018 8.33641L8.58083 9.97436C7.74965 11.3517 7.1441 12.8374 6.77489 14.4053H4.49838C4.10656 14.4053 3.78889 14.7284 3.78889 15.1269V18.0122C3.78889 18.4107 4.10656 18.7338 4.49838 18.7338H5.26304V22.2456L4.00333 23.102C3.58021 22.7479 3.03886 22.5351 2.44954 22.5351C1.09892 22.5351 0 23.6527 0 25.0263C0 26.3999 1.09892 27.5174 2.44954 27.5174C3.80015 27.5174 4.89907 26.3999 4.89907 25.0263C4.89907 24.7741 4.86173 24.5307 4.79291 24.301L6.36684 23.231C6.56382 23.0972 6.68204 22.8721 6.68204 22.6312V18.7339H9.04404V23.4467L7.82796 25.7044C7.66522 25.6697 7.49663 25.6511 7.32386 25.6511C5.97325 25.6511 4.87442 26.7686 4.87442 28.1422C4.87442 29.5158 5.97325 30.6334 7.32386 30.6334C8.67448 30.6334 9.77331 29.5158 9.77331 28.1422C9.77331 27.4642 9.5053 26.8489 9.07171 26.3992L10.3759 23.9781C10.4331 23.8718 10.463 23.7526 10.463 23.6314V18.7339H10.9616C11.3534 18.7339 11.6711 18.4108 11.6711 18.0123C11.6711 12.5006 16.0804 8.01631 21.5 8.01631C26.9195 8.01631 31.3288 12.5006 31.3288 18.0123C31.3288 18.4108 31.6465 18.7339 32.0383 18.7339H32.537V23.6314C32.537 23.7526 32.5669 23.8718 32.6241 23.9781L33.9283 26.3992C33.4947 26.8489 33.2267 27.4642 33.2267 28.1422C33.2267 29.5158 34.3255 30.6334 35.6761 30.6334C37.0267 30.6334 38.1256 29.5158 38.1256 28.1422C38.1256 26.7686 37.0267 25.6511 35.6761 25.6511C35.5034 25.6511 35.3348 25.6697 35.172 25.7044L33.956 23.4467V18.7339H36.318V22.6312C36.318 22.8721 36.4362 23.0972 36.6332 23.231L38.2071 24.301C38.1383 24.5307 38.1009 24.7741 38.1009 25.0263C38.1009 26.3999 39.1998 27.5174 40.5505 27.5174C41.9011 27.5174 43 26.3999 43 25.0263C43 23.6527 41.9012 22.5351 40.5505 22.5351ZM2.44962 26.0743C1.88141 26.0743 1.41908 25.6042 1.41908 25.0263C1.41908 24.4484 1.88141 23.9782 2.44962 23.9782C3.01784 23.9782 3.48017 24.4484 3.48017 25.0263C3.48017 25.6042 3.01784 26.0743 2.44962 26.0743ZM7.32386 29.1902C6.75565 29.1902 6.29341 28.72 6.29341 28.1421C6.29341 27.5642 6.75565 27.0941 7.32386 27.0941C7.89208 27.0941 8.35432 27.5642 8.35432 28.1421C8.35432 28.72 7.89208 29.1902 7.32386 29.1902ZM36.7067 28.1421C36.7067 28.72 36.2444 29.1902 35.6762 29.1902C35.108 29.1902 34.6458 28.72 34.6458 28.1421C34.6458 27.5642 35.108 27.0941 35.6762 27.0941C36.2444 27.0941 36.7067 27.5642 36.7067 28.1421ZM21.5 6.57318C15.5361 6.57318 10.6414 11.3178 10.2743 17.2908H5.20788V15.8485H7.34542C7.68376 15.8485 7.97509 15.6055 8.04125 15.2679C8.3921 13.478 9.07676 11.7981 10.0761 10.2751C10.2638 9.98889 10.2269 9.60763 9.98758 9.36428L8.47511 7.82618L11.4842 4.76602L12.9967 6.30422C13.2358 6.54738 13.6107 6.58509 13.8923 6.39414C15.389 5.37809 17.0408 4.68196 18.8017 4.32479C19.1334 4.2575 19.3724 3.9613 19.3724 3.61711V1.44313H23.6277V3.6172C23.6277 3.9613 23.8667 4.25759 24.1986 4.32488C25.9584 4.6816 27.6101 5.37791 29.1078 6.39432C29.3893 6.58536 29.764 6.54766 30.0033 6.3044L31.5159 4.76611L34.5249 7.82636L33.0123 9.36455C32.7731 9.6079 32.7362 9.98916 32.9239 10.2754C33.9231 11.7978 34.6076 13.4776 34.9587 15.2681C35.0248 15.6055 35.3161 15.8486 35.6545 15.8486H37.7922V17.2908H32.7258C32.3587 11.3177 27.464 6.57318 21.5 6.57318ZM40.5505 26.0743C39.9822 26.0743 39.5199 25.6042 39.5199 25.0263C39.5199 24.4484 39.9822 23.9782 40.5505 23.9782C41.1187 23.9782 41.581 24.4484 41.581 25.0263C41.581 25.6042 41.1187 26.0743 40.5505 26.0743ZM20.9061 33.1585H22.0939C23.4087 33.1585 24.4783 32.0707 24.4783 30.7335V30.4757C25.1444 30.1924 25.6137 29.5232 25.6137 28.7443V26.6963C25.6137 26.3314 25.7766 26.0398 26.0849 25.8529C28.7888 24.2144 30.4685 21.21 30.4685 18.0122C30.4685 12.9829 26.4453 8.89139 21.5 8.89139C16.5549 8.89139 12.5317 12.9829 12.5317 18.0122C12.5317 21.2101 14.2113 24.2145 16.9152 25.853C17.2236 26.0397 17.3865 26.3314 17.3865 26.6963V28.7443C17.3865 29.5233 17.8558 30.1925 18.5218 30.4758V30.7336C18.5218 32.0707 19.5914 33.1585 20.9061 33.1585ZM18.8055 28.1756H24.1947V28.7443C24.1947 28.9831 24.0037 29.1774 23.7688 29.1774H19.2313C18.9965 29.1774 18.8055 28.9832 18.8055 28.7443V28.1756ZM19.8378 19.7957C18.8581 19.4894 18.2285 18.9407 18.2285 18.4324C18.2285 17.9811 18.5894 17.6141 19.0331 17.6141C19.4768 17.6141 19.8377 17.9811 19.8377 18.4324V19.7957H19.8378ZM21.7432 26.7324H21.2569V21.4769C21.4179 21.4821 21.5822 21.4821 21.7432 21.4769V26.7324ZM22.0939 31.7154H20.9061C20.3738 31.7154 19.9407 31.2749 19.9407 30.7335V30.6204H23.0592V30.7335C23.0593 31.2749 22.6262 31.7154 22.0939 31.7154ZM17.6414 24.6133C15.3649 23.2337 13.9506 20.7043 13.9506 18.0122C13.9506 13.7786 17.3373 10.3345 21.5 10.3345C25.6628 10.3345 29.0495 13.7787 29.0495 18.0122C29.0495 20.7043 27.6352 23.2337 25.3586 24.6132C24.619 25.0614 24.1947 25.8206 24.1947 26.6963V26.7324H23.1622V21.2908C24.9487 20.8636 26.1905 19.7595 26.1905 18.4324C26.1905 17.1854 25.1931 16.171 23.967 16.171C22.7409 16.171 21.7433 17.1854 21.7433 18.4324V20.033C21.5831 20.0393 21.4171 20.0393 21.257 20.033V18.4324C21.257 17.1854 20.2595 16.171 19.0334 16.171C17.8073 16.171 16.8097 17.1854 16.8097 18.4324C16.8097 19.7596 18.0515 20.8636 19.838 21.2908V26.7324H18.8056V26.6963C18.8055 25.8207 18.3812 25.0615 17.6414 24.6133ZM23.1622 19.7957V18.4324C23.1622 17.9811 23.5232 17.6141 23.9669 17.6141C24.4106 17.6141 24.7714 17.9811 24.7714 18.4324C24.7714 18.9408 24.1419 19.4895 23.1622 19.7957Z" fill="#073500"/>
</svg>
